<svg width="96" height="37" viewBox="0 0 96 37" fill="none" xmlns="http://www.w3.org/2000/svg">
<g clip-path="url(#clip0_2395_3403)">
<path d="M1.38435 10.9903C2.30725 11.9841 3.41473 12.7972 4.24534 13.8813C11.3517 23.5481 21.5036 28.3364 32.7629 30.9563C36.6391 31.8598 41.069 31.7694 45.0375 30.9563C56.3892 28.7881 66.7256 24.1805 75.6778 16.953C78.2619 14.8751 80.4768 12.2551 82.3226 9.27378C81.3075 9.63516 80.2 9.99653 79.1848 10.4483C76.2315 11.7131 73.2782 13.0682 70.2327 14.1524C68.9406 14.6041 67.3717 14.6041 65.895 14.5137C65.3413 14.5137 64.5107 13.7006 64.4184 13.1586C64.3261 12.6165 64.8798 11.6227 65.3413 11.5324C73.1859 9.18344 80.0154 4.66624 87.1217 0.78145C89.6135 -0.573709 91.1825 -0.212333 92.29 2.22695C94.9664 8.28 96.1661 14.6944 95.9816 21.2895C95.9816 21.4702 95.6124 21.7412 95.0587 22.2833C89.6136 20.2957 91.2748 14.5137 88.5984 9.90619C87.9523 10.9903 87.4909 11.8938 86.9371 12.6165C75.3086 26.6198 59.8962 34.028 41.9919 36.7383C39.3155 37.1901 36.3622 37.0094 33.5935 36.5577C23.4417 34.8411 14.3972 30.6853 6.92175 23.7288C4.52221 21.4702 2.7687 18.4889 1.01519 15.6882C0.276869 14.6041 0.27687 13.0682 0 11.8034C0.46145 11.5324 0.9229 11.2613 1.38435 10.9903Z" fill="white"/>
</g>
<defs>
<clipPath id="clip0_2395_3403">
<rect width="96" height="37" fill="white"/>
</clipPath>
</defs>
</svg>
