<svg width="96" height="37" viewBox="0 0 96 37" fill="none" xmlns="http://www.w3.org/2000/svg">
<g clip-path="url(#clip0_2395_3401)">
<path d="M1.38435 26.0097C2.30725 25.0159 3.41473 24.2028 4.24534 23.1187C11.3517 13.4519 21.5036 8.66365 32.7629 6.04367C36.6391 5.14023 41.069 5.23058 45.0375 6.04367C56.3892 8.21193 66.7257 12.8195 75.6778 20.047C78.2619 22.1249 80.4768 24.7449 82.3226 27.7262C81.3075 27.3649 80.2 27.0035 79.1848 26.5518C76.2315 25.2869 73.2782 23.9318 70.2327 22.8477C68.9406 22.3959 67.3717 22.3959 65.895 22.4863C65.3413 22.4863 64.5107 23.2994 64.4184 23.8414C64.3261 24.3835 64.8798 25.3773 65.3413 25.4676C73.1859 27.8166 80.0154 32.3338 87.1217 36.2186C89.6135 37.5737 91.1825 37.2123 92.29 34.7731C94.9664 28.72 96.1661 22.3056 95.9816 15.7105C95.9816 15.5298 95.6124 15.2588 95.0587 14.7167C89.6136 16.7043 91.2748 22.4863 88.5984 27.0938C87.9523 26.0097 87.4909 25.1063 86.9372 24.3835C75.3086 10.3802 59.8962 2.97198 41.9919 0.261661C39.3155 -0.19006 36.3623 -0.00937398 33.5936 0.442347C23.4417 2.15888 14.3972 6.3147 6.92175 13.2712C4.52221 15.5298 2.7687 18.5111 1.01519 21.3118C0.276872 22.3959 0.276872 23.9318 2.06377e-06 25.1966C0.461452 25.4676 0.922902 25.7387 1.38435 26.0097Z" fill="white"/>
</g>
<defs>
<clipPath id="clip0_2395_3401">
<rect width="96" height="37" fill="white" transform="matrix(1 1.74846e-07 1.74846e-07 -1 0 37)"/>
</clipPath>
</defs>
</svg>
