<svg width="96" height="30" viewBox="0 0 96 30" fill="none" xmlns="http://www.w3.org/2000/svg">
<rect x="0.75" y="0.75" width="94.5" height="28.5" rx="14.25" stroke="url(#paint0_linear_2395_3349)" stroke-width="1.5"/>
<path d="M24.304 20.5H17.216L19.536 9.556H26.704L26.432 10.82H20.768L20 14.372H24.96L24.704 15.604H19.744L18.976 19.22H24.576L24.304 20.5ZM30.091 20.484H28.603L30.667 10.836H27.211L27.483 9.54H35.883L35.611 10.836H32.155L30.091 20.484ZM39.9106 20.484L39.5906 17.508H35.6066L34.0226 20.484H32.5026L38.3426 9.524H40.2466L41.4466 20.484H39.9106ZM36.2466 16.308H39.4466L38.9186 11.22L36.2466 16.308ZM45.0528 16.388L44.1728 20.5H42.6848L45.0048 9.556H48.7648C50.4448 9.556 52.2528 10.276 51.6928 12.9C51.1808 15.316 49.3248 16.388 47.3088 16.388H45.0528ZM46.2368 10.788L45.3088 15.188H47.4688C48.5248 15.188 49.7888 14.868 50.2048 12.884C50.6208 10.964 49.1808 10.788 48.3968 10.788H46.2368ZM58.6946 20.5H51.6066L53.9266 9.556H61.0946L60.8226 10.82H55.1586L54.3906 14.372H59.3506L59.0946 15.604H54.1346L53.3666 19.22H58.9666L58.6946 20.5ZM60.2736 17.684H61.8096C61.7616 18.996 62.8016 19.412 63.9216 19.412C65.4736 19.396 66.5616 18.612 66.8176 17.444C66.9936 16.612 66.5616 16.212 65.5216 15.892L63.6496 15.316C62.0816 14.836 61.2176 13.988 61.5536 12.388C62.0016 10.26 64.1456 9.396 66.1456 9.396C68.3376 9.396 69.7136 10.292 69.3296 12.5H67.7936C67.8896 10.996 67.0576 10.644 65.7616 10.644C64.5136 10.644 63.4576 11.188 63.2016 12.388C63.0416 13.14 63.3616 13.652 64.4816 14.02L66.2896 14.612C67.6976 15.076 68.7376 15.796 68.3856 17.46C67.9536 19.524 65.8096 20.66 63.5856 20.66C61.1056 20.66 59.9696 19.46 60.2736 17.684ZM74.0154 12.532C74.1754 10.596 75.7114 9.38 78.0154 9.38C79.8874 9.38 81.0874 10.564 80.6714 12.644C80.2234 14.724 78.7354 15.684 77.0874 16.628C75.7914 17.38 74.5594 18.068 73.9514 19.284H79.1834L79.0074 20.516H71.9994C72.6554 17.812 74.6234 16.724 76.3514 15.764C77.7434 14.964 78.9754 14.244 79.3274 12.708C79.6474 11.316 78.9594 10.596 77.7914 10.596C76.3674 10.596 75.5514 11.252 75.3594 12.532H74.0154Z" fill="white"/>
<defs>
<linearGradient id="paint0_linear_2395_3349" x1="96" y1="15" x2="15.9425" y2="44.7882" gradientUnits="userSpaceOnUse">
<stop stop-color="white" stop-opacity="0"/>
<stop offset="0.5" stop-color="white"/>
<stop offset="1" stop-color="white" stop-opacity="0"/>
</linearGradient>
</defs>
</svg>
