<svg width="97" height="30" viewBox="0 0 97 30" fill="none" xmlns="http://www.w3.org/2000/svg">
<rect x="0.75" y="0.75" width="95.5" height="28.5" rx="14.25" stroke="url(#paint0_linear_2395_3364)" stroke-width="1.5"/>
<path d="M24.304 20.5H17.216L19.536 9.556H26.704L26.432 10.82H20.768L20 14.372H24.96L24.704 15.604H19.744L18.976 19.22H24.576L24.304 20.5ZM30.091 20.484H28.603L30.667 10.836H27.211L27.483 9.54H35.883L35.611 10.836H32.155L30.091 20.484ZM39.9106 20.484L39.5906 17.508H35.6066L34.0226 20.484H32.5026L38.3426 9.524H40.2466L41.4466 20.484H39.9106ZM36.2466 16.308H39.4466L38.9186 11.22L36.2466 16.308ZM45.0528 16.388L44.1728 20.5H42.6848L45.0048 9.556H48.7648C50.4448 9.556 52.2528 10.276 51.6928 12.9C51.1808 15.316 49.3248 16.388 47.3088 16.388H45.0528ZM46.2368 10.788L45.3088 15.188H47.4688C48.5248 15.188 49.7888 14.868 50.2048 12.884C50.6208 10.964 49.1808 10.788 48.3968 10.788H46.2368ZM58.6946 20.5H51.6066L53.9266 9.556H61.0946L60.8226 10.82H55.1586L54.3906 14.372H59.3506L59.0946 15.604H54.1346L53.3666 19.22H58.9666L58.6946 20.5ZM60.2736 17.684H61.8096C61.7616 18.996 62.8016 19.412 63.9216 19.412C65.4736 19.396 66.5616 18.612 66.8176 17.444C66.9936 16.612 66.5616 16.212 65.5216 15.892L63.6496 15.316C62.0816 14.836 61.2176 13.988 61.5536 12.388C62.0016 10.26 64.1456 9.396 66.1456 9.396C68.3376 9.396 69.7136 10.292 69.3296 12.5H67.7936C67.8896 10.996 67.0576 10.644 65.7616 10.644C64.5136 10.644 63.4576 11.188 63.2016 12.388C63.0416 13.14 63.3616 13.652 64.4816 14.02L66.2896 14.612C67.6976 15.076 68.7376 15.796 68.3856 17.46C67.9536 19.524 65.8096 20.66 63.5856 20.66C61.1056 20.66 59.9696 19.46 60.2736 17.684ZM77.5674 18.404H72.4474L72.6874 17.252L79.6794 9.524H80.9434L79.3274 17.14H80.3514L80.0794 18.404H79.0554L78.6234 20.5H77.1194L77.5674 18.404ZM78.9434 11.94L74.2874 17.14H77.8394L78.9434 11.94Z" fill="white"/>
<defs>
<linearGradient id="paint0_linear_2395_3364" x1="40.9252" y1="-2.16257" x2="16.2638" y2="27.4209" gradientUnits="userSpaceOnUse">
<stop stop-color="white" stop-opacity="0"/>
<stop offset="0.5" stop-color="white"/>
<stop offset="1" stop-color="white" stop-opacity="0"/>
</linearGradient>
</defs>
</svg>
