<svg width="60" height="42" viewBox="0 0 60 42" fill="none" xmlns="http://www.w3.org/2000/svg">
<rect x="0.5" y="0.5" width="59" height="41" rx="20.5" fill="black" stroke="#868686"/>
<path d="M25.7355 13.3966L32.652 20.4241C32.8037 20.5774 32.8888 20.7844 32.8888 21.0001C32.8888 21.2158 32.8037 21.4227 32.652 21.5761L25.737 28.6036C25.5854 28.7579 25.5005 28.9655 25.5005 29.1818C25.5005 29.3981 25.5854 29.6058 25.737 29.7601C25.8111 29.8361 25.8996 29.8964 25.9974 29.9377C26.0952 29.9789 26.2002 30.0001 26.3063 30.0001C26.4124 30.0001 26.5174 29.9789 26.6152 29.9377C26.713 29.8964 26.8015 29.8361 26.8755 29.7601L33.7905 22.7341C34.2449 22.2713 34.4995 21.6486 34.4995 21.0001C34.4995 20.3515 34.2449 19.7289 33.7905 19.2661L26.8755 12.2401C26.8015 12.1639 26.7128 12.1033 26.6149 12.0619C26.517 12.0206 26.4118 11.9993 26.3055 11.9993C26.1993 11.9993 26.0941 12.0206 25.9962 12.0619C25.8983 12.1033 25.8096 12.1639 25.7355 12.2401C25.5839 12.3944 25.499 12.602 25.499 12.8183C25.499 13.0346 25.5839 13.2423 25.7355 13.3966Z" fill="white"/>
</svg>
