<svg width="333" height="46" viewBox="0 0 333 46" fill="none" xmlns="http://www.w3.org/2000/svg">
<rect x="0.75" y="0.75" width="331.167" height="44.5" rx="22.25" stroke="url(#paint0_linear_2395_2909)" stroke-width="1.5"/>
<path d="M25.9998 27.3915L31.1498 30.4998L29.7832 24.6415L34.3332 20.6998L28.3415 20.1915L25.9998 14.6665L23.6582 20.1915L17.6665 20.6998L22.2165 24.6415L20.8498 30.4998L25.9998 27.3915Z" fill="#FFC700"/>
<path d="M47.6663 27.3915L52.8163 30.4998L51.4497 24.6415L55.9997 20.6998L50.008 20.1915L47.6663 14.6665L45.3247 20.1915L39.333 20.6998L43.883 24.6415L42.5163 30.4998L47.6663 27.3915Z" fill="#FFC700"/>
<path d="M69.3333 27.3915L74.4833 30.4998L73.1167 24.6415L77.6667 20.6998L71.675 20.1915L69.3333 14.6665L66.9917 20.1915L61 20.6998L65.55 24.6415L64.1833 30.4998L69.3333 27.3915Z" fill="#FFC700"/>
<path d="M90.9998 27.3915L96.1498 30.4998L94.7832 24.6415L99.3332 20.6998L93.3415 20.1915L90.9998 14.6665L88.6582 20.1915L82.6665 20.6998L87.2165 24.6415L85.8498 30.4998L90.9998 27.3915Z" fill="#FFC700"/>
<path d="M112.666 27.3915L117.816 30.4998L116.45 24.6415L121 20.6998L115.008 20.1915L112.666 14.6665L110.325 20.1915L104.333 20.6998L108.883 24.6415L107.516 30.4998L112.666 27.3915Z" fill="#FFC700"/>
<path d="M134.075 23.636H131.483V22.276H134.075V19.492H135.627V22.276H138.235V23.636H135.627V26.436H134.075V23.636ZM143.369 28.5H141.257V20.372H139.129V18.82C140.441 18.772 141.177 18.324 141.689 17.348H143.369V28.5ZM144.77 25.284H146.626C146.69 26.34 147.122 27.028 148.482 27.012C149.522 27.012 150.37 26.26 150.37 24.884C150.37 23.492 149.538 22.724 148.466 22.676C147.794 22.66 147.218 22.98 146.834 23.428L145.026 22.82L146.13 17.348H151.986V19.284H147.57L147.09 21.524C147.586 21.188 148.21 21.028 148.802 21.028C150.866 21.044 152.274 22.5 152.274 24.756C152.274 26.98 150.882 28.692 148.546 28.692C145.81 28.692 144.722 27.236 144.77 25.284ZM153.209 22.916C153.209 19.604 154.329 17.172 157.513 17.172C160.713 17.172 161.801 19.62 161.801 22.916C161.801 26.212 160.745 28.66 157.497 28.66C154.265 28.66 153.209 26.228 153.209 22.916ZM157.497 26.916C159.673 26.916 159.801 24.756 159.801 22.932C159.801 21.108 159.673 18.948 157.497 18.948C155.321 18.948 155.209 21.076 155.209 22.932C155.209 24.788 155.337 26.916 157.497 26.916ZM171.303 26.676C172.871 26.676 173.735 25.924 174.215 24.532H176.247C175.847 27.332 173.655 28.676 171.255 28.676C168.215 28.676 165.991 26.58 165.991 22.932C165.991 19.284 168.247 17.172 171.303 17.172C173.719 17.172 175.927 18.372 176.263 21.444H174.215C173.767 19.956 172.887 19.172 171.287 19.172C169.271 19.172 168.119 20.596 168.119 22.932C168.119 25.284 169.287 26.676 171.303 26.676ZM185.446 28.5H177.942V17.364H180.086V26.564H185.446V28.5ZM189.133 28.516H186.989V17.348H189.133V28.516ZM199.045 28.5H191.349V17.348H199.061V19.124H193.493V22.004H198.357V23.732H193.493V26.724H199.045V28.5ZM202.821 28.516H200.677V17.348H202.597L207.781 24.724V17.348H209.925V28.516H207.989L202.821 21.172V28.516ZM216.786 28.5H214.658V19.172H211.282V17.348H220.178V19.172H216.786V28.5ZM220.612 25.236H222.836C222.98 26.58 224.004 26.948 225.076 26.932C226.548 26.916 227.252 26.228 227.252 25.38C227.252 24.74 226.756 24.42 225.78 24.148L223.7 23.54C222.068 23.06 220.772 22.276 220.772 20.42C220.772 18.164 222.9 17.188 225.172 17.188C227.508 17.188 229.38 18.1 229.412 20.676H227.14C227.044 19.332 226.212 18.932 225.044 18.932C223.844 18.932 223.172 19.444 223.172 20.388C223.172 21.044 223.604 21.412 224.596 21.732L226.58 22.356C228.132 22.852 229.54 23.524 229.54 25.38C229.54 27.572 227.412 28.66 225.028 28.66C222.26 28.676 220.58 27.364 220.612 25.236ZM233.519 25.236H235.743C235.887 26.58 236.911 26.948 237.983 26.932C239.455 26.916 240.159 26.228 240.159 25.38C240.159 24.74 239.663 24.42 238.687 24.148L236.607 23.54C234.975 23.06 233.679 22.276 233.679 20.42C233.679 18.164 235.807 17.188 238.079 17.188C240.415 17.188 242.287 18.1 242.319 20.676H240.047C239.951 19.332 239.119 18.932 237.951 18.932C236.751 18.932 236.079 19.444 236.079 20.388C236.079 21.044 236.511 21.412 237.503 21.732L239.487 22.356C241.039 22.852 242.447 23.524 242.447 25.38C242.447 27.572 240.319 28.66 237.935 28.66C235.167 28.676 233.487 27.364 233.519 25.236ZM250.358 28.516L249.574 25.86H245.894L245.11 28.516H242.918L246.294 17.364H249.158L252.566 28.516H250.358ZM246.406 24.116H249.062L247.718 19.556L246.406 24.116ZM256.927 28.5H254.799V19.172H251.423V17.348H260.319V19.172H256.927V28.5ZM263.79 28.516H261.646V17.348H263.79V28.516ZM265.253 25.236H267.477C267.621 26.58 268.645 26.948 269.717 26.932C271.189 26.916 271.893 26.228 271.893 25.38C271.893 24.74 271.397 24.42 270.421 24.148L268.341 23.54C266.709 23.06 265.413 22.276 265.413 20.42C265.413 18.164 267.541 17.188 269.813 17.188C272.149 17.188 274.021 18.1 274.053 20.676H271.781C271.685 19.332 270.853 18.932 269.685 18.932C268.485 18.932 267.813 19.444 267.813 20.388C267.813 21.044 268.245 21.412 269.237 21.732L271.221 22.356C272.773 22.852 274.181 23.524 274.181 25.38C274.181 27.572 272.053 28.66 269.669 28.66C266.901 28.676 265.221 27.364 265.253 25.236ZM277.836 28.5H275.692V17.348H283.404V19.124H277.836V22.084H282.684V23.828H277.836V28.5ZM290.514 28.516L289.73 25.86H286.05L285.266 28.516H283.074L286.45 17.364H289.314L292.722 28.516H290.514ZM286.562 24.116H289.218L287.874 19.556L286.562 24.116ZM296.008 28.516H293.864V17.348H296.008V28.516ZM302.88 28.5H300.752V19.172H297.376V17.348H306.272V19.172H302.88V28.5ZM306.706 25.236H308.93C309.074 26.58 310.098 26.948 311.17 26.932C312.642 26.916 313.346 26.228 313.346 25.38C313.346 24.74 312.85 24.42 311.874 24.148L309.794 23.54C308.162 23.06 306.866 22.276 306.866 20.42C306.866 18.164 308.994 17.188 311.266 17.188C313.602 17.188 315.474 18.1 315.506 20.676H313.234C313.138 19.332 312.306 18.932 311.138 18.932C309.938 18.932 309.266 19.444 309.266 20.388C309.266 21.044 309.698 21.412 310.69 21.732L312.674 22.356C314.226 22.852 315.634 23.524 315.634 25.38C315.634 27.572 313.506 28.66 311.122 28.66C308.354 28.676 306.674 27.364 306.706 25.236Z" fill="white"/>
<defs>
<linearGradient id="paint0_linear_2395_2909" x1="333" y1="3" x2="238.178" y2="159.962" gradientUnits="userSpaceOnUse">
<stop stop-color="white" stop-opacity="0"/>
<stop offset="0.5" stop-color="white"/>
<stop offset="1" stop-color="white" stop-opacity="0"/>
</linearGradient>
</defs>
</svg>
