<svg width="32" height="32" viewBox="0 0 32 32" fill="none" xmlns="http://www.w3.org/2000/svg">
<rect x="0.5" y="0.5" width="31" height="31" rx="15.5" fill="#161616" stroke="#868686"/>
<path d="M21.0689 13.1571L16.3839 17.7681C16.2817 17.8692 16.1437 17.926 15.9999 17.926C15.8562 17.926 15.7182 17.8692 15.6159 17.7681L10.9309 13.1581C10.8281 13.057 10.6897 13.0004 10.5454 13.0004C10.4012 13.0004 10.2628 13.057 10.1599 13.1581C10.1093 13.2075 10.069 13.2665 10.0416 13.3317C10.0141 13.3969 9.99992 13.4669 9.99992 13.5376C9.99992 13.6083 10.0141 13.6784 10.0416 13.7435C10.069 13.8087 10.1093 13.8677 10.1599 13.9171L14.8439 18.5271C15.1525 18.83 15.5676 18.9998 15.9999 18.9998C16.4323 18.9998 16.8474 18.83 17.1559 18.5271L21.8399 13.9171C21.8907 13.8677 21.9311 13.8086 21.9587 13.7434C21.9863 13.6781 22.0005 13.608 22.0005 13.5371C22.0005 13.4663 21.9863 13.3961 21.9587 13.3309C21.9311 13.2656 21.8907 13.2065 21.8399 13.1571C21.7371 13.056 21.5987 12.9994 21.4544 12.9994C21.3102 12.9994 21.1718 13.056 21.0689 13.1571Z" fill="white"/>
</svg>
