<svg width="197" height="37" viewBox="0 0 197 37" fill="none" xmlns="http://www.w3.org/2000/svg">
<rect x="0.75" y="0.75" width="195.5" height="35.5" rx="17.75" fill="#030619"/>
<rect x="0.75" y="0.75" width="195.5" height="35.5" rx="17.75" stroke="url(#paint0_linear_2395_3266)" stroke-width="1.5"/>
<path d="M19.2031 25.12H35.2031V9.12H19.2031V25.12ZM43.6031 24H36.3551L38.7071 12.96H40.5311L38.5311 22.352H43.9551L43.6031 24ZM51.5981 24.016L51.3101 21.184H47.4701L46.0301 24.016H44.1581L49.9501 12.96H52.3341L53.4541 24.016H51.5981ZM48.2541 19.712H51.1821L50.7181 14.896L48.2541 19.712ZM60.5275 20L59.6795 24H57.8555L60.2075 12.944H64.3035C65.9675 12.944 67.7755 13.712 67.1995 16.384C66.7035 18.736 64.8635 20 62.8155 20H60.5275ZM61.7115 14.432L60.8315 18.544H62.9755C63.8875 18.544 65.0075 18.24 65.3915 16.416C65.7755 14.608 64.5115 14.432 63.8235 14.432H61.7115ZM74.2906 24H67.0426L69.3946 12.96H71.2186L69.2186 22.352H74.6426L74.2906 24ZM77.8113 12.944H79.6353L78.3073 19.184C77.8913 21.168 78.3073 22.528 80.2753 22.528C82.2433 22.528 83.2513 21.152 83.6673 19.184L84.9953 12.944H86.7713L85.4273 19.216C84.8833 21.792 83.2193 24.192 79.9233 24.192C76.6593 24.192 75.9393 21.792 76.4833 19.216L77.8113 12.944ZM86.4463 20.96H88.3183C88.2383 22.288 89.2303 22.672 90.3183 22.672C91.8223 22.656 92.7983 21.92 93.0063 20.912C93.1663 20.176 92.7343 19.824 91.7743 19.52L89.8543 18.928C88.3023 18.448 87.3103 17.632 87.6783 15.904C88.1423 13.712 90.3823 12.784 92.5103 12.784C94.7663 12.784 96.2863 13.696 95.8383 16.08H93.9343C94.0783 14.656 93.2943 14.288 92.0783 14.288C90.8463 14.288 89.9343 14.816 89.7103 15.888C89.5663 16.592 89.9023 17.024 90.9263 17.376L92.7343 17.984C94.1583 18.464 95.3103 19.168 94.9263 20.928C94.4783 23.056 92.2383 24.16 89.9503 24.16C87.3103 24.176 86.0463 22.912 86.4463 20.96ZM101.746 20L100.898 24H99.0743L101.426 12.944H105.522C107.186 12.944 108.994 13.712 108.418 16.384C107.922 18.736 106.082 20 104.034 20H101.746ZM102.93 14.432L102.05 18.544H104.194C105.106 18.544 106.226 18.24 106.61 16.416C106.994 14.608 105.73 14.432 105.042 14.432H102.93ZM108.837 18.48C109.557 15.072 112.581 12.768 115.573 12.768C118.565 12.768 120.581 15.056 119.845 18.48C119.125 21.904 116.133 24.192 113.141 24.192C110.149 24.192 108.117 21.888 108.837 18.48ZM113.493 22.48C115.621 22.48 117.557 20.8 118.053 18.48C118.549 16.144 117.317 14.448 115.205 14.448C113.077 14.448 111.125 16.144 110.629 18.48C110.133 20.8 111.397 22.48 113.493 22.48ZM123.043 20L122.195 24H120.371L122.723 12.944H126.819C128.483 12.944 130.291 13.712 129.715 16.384C129.219 18.736 127.379 20 125.331 20H123.043ZM124.227 14.432L123.347 18.544H125.491C126.403 18.544 127.523 18.24 127.907 16.416C128.291 14.608 127.027 14.432 126.339 14.432H124.227ZM131.421 12.944H133.245L131.917 19.184C131.501 21.168 131.917 22.528 133.885 22.528C135.853 22.528 136.861 21.152 137.277 19.184L138.605 12.944H140.381L139.037 19.216C138.493 21.792 136.829 24.192 133.533 24.192C130.269 24.192 129.549 21.792 130.093 19.216L131.421 12.944ZM147.416 24H140.168L142.52 12.96H144.344L142.344 22.352H147.768L147.416 24ZM155.411 24.016L155.123 21.184H151.283L149.843 24.016H147.971L153.763 12.96H156.147L157.267 24.016H155.411ZM152.067 19.712H154.995L154.531 14.896L152.067 19.712ZM160.273 24.016H158.449L160.801 12.96H162.625L160.273 24.016ZM169.198 19.664L170.526 24H168.542L167.358 19.984H165.262L164.414 24H162.59L164.942 12.944H169.454C171.038 12.944 172.67 13.776 172.126 16.336C171.758 18.032 170.59 19.328 169.198 19.664ZM166.446 14.432L165.566 18.544H168.206C169.038 18.544 169.934 18.128 170.302 16.416C170.67 14.688 169.646 14.432 169.022 14.432H166.446ZM179.544 24.016H172.152L174.504 12.96H181.944L181.608 14.48H175.992L175.32 17.696L180.232 17.696L179.912 19.168L175 19.168L174.296 22.464H179.88L179.544 24.016Z" fill="white"/>
<defs>
<linearGradient id="paint0_linear_2395_3266" x1="197.197" y1="2.41305" x2="112.692" y2="105.4" gradientUnits="userSpaceOnUse">
<stop stop-color="white" stop-opacity="0"/>
<stop offset="0.5" stop-color="white"/>
<stop offset="1" stop-color="white" stop-opacity="0"/>
</linearGradient>
</defs>
</svg>
