<svg width="196" height="42" viewBox="0 0 196 42" fill="none" xmlns="http://www.w3.org/2000/svg">
<rect x="0.75" y="0.75" width="194.5" height="40.5" rx="20.25" fill="#030619"/>
<rect x="0.75" y="0.75" width="194.5" height="40.5" rx="20.25" stroke="url(#paint0_linear_2395_3266)" stroke-width="1.5"/>
<path d="M21.0514 14.684C21.1177 14.4849 21.245 14.3117 21.4153 14.1889C21.5855 14.0661 21.79 14.0001 21.9999 14H26.4999C26.6615 14 26.8207 14.0391 26.9638 14.1141C27.107 14.189 27.2298 14.2975 27.3219 14.4303C27.4139 14.5631 27.4724 14.7162 27.4924 14.8766C27.5123 15.0369 27.4931 15.1997 27.4364 15.351L26.4429 18H27.9999C28.1897 18 28.3756 18.054 28.5359 18.1558C28.6961 18.2575 28.8241 18.4028 28.9049 18.5746C28.9856 18.7464 29.0158 18.9376 28.9919 19.1259C28.968 19.3142 28.891 19.4918 28.7699 19.638L22.2364 27.5235C21.3834 28.5525 19.7284 27.706 20.0634 26.4125L21.2074 22H19.9999C19.8414 22 19.6852 21.9623 19.5442 21.8901C19.4031 21.8178 19.2813 21.7131 19.1886 21.5846C19.096 21.456 19.0353 21.3072 19.0114 21.1506C18.9875 20.9939 19.0013 20.8338 19.0514 20.6835L21.0514 14.684ZM21.9999 15L19.9999 21H21.8539C21.9303 21 22.0056 21.0175 22.0741 21.0511C22.1427 21.0847 22.2026 21.1336 22.2494 21.194C22.2961 21.2544 22.3284 21.3247 22.3437 21.3995C22.3591 21.4743 22.3571 21.5516 22.3379 21.6255L21.0314 26.6635C20.9644 26.922 21.2954 27.0915 21.4664 26.8855L27.9999 19H25.7214C25.6406 19 25.5611 18.9804 25.4895 18.9429C25.418 18.9054 25.3566 18.8511 25.3106 18.7847C25.2646 18.7184 25.2354 18.6418 25.2254 18.5617C25.2155 18.4815 25.2251 18.4001 25.2534 18.3245L26.4999 15H21.9999Z" fill="#FFA300"/>
<path d="M43.4 26.5H36.152L38.504 15.46H40.328L38.328 24.852H43.752L43.4 26.5ZM51.395 26.516L51.107 23.684H47.267L45.827 26.516H43.955L49.747 15.46H52.131L53.251 26.516H51.395ZM48.051 22.212H50.979L50.515 17.396L48.051 22.212ZM60.3244 22.5L59.4764 26.5H57.6524L60.0044 15.444H64.1004C65.7644 15.444 67.5724 16.212 66.9964 18.884C66.5004 21.236 64.6604 22.5 62.6124 22.5H60.3244ZM61.5084 16.932L60.6284 21.044H62.7724C63.6844 21.044 64.8044 20.74 65.1884 18.916C65.5724 17.108 64.3084 16.932 63.6204 16.932H61.5084ZM74.0875 26.5H66.8395L69.1915 15.46H71.0155L69.0155 24.852H74.4395L74.0875 26.5ZM77.6081 15.444H79.4321L78.1041 21.684C77.6881 23.668 78.1041 25.028 80.0721 25.028C82.0401 25.028 83.0481 23.652 83.4641 21.684L84.7921 15.444H86.5681L85.2241 21.716C84.6801 24.292 83.0161 26.692 79.7201 26.692C76.4561 26.692 75.7361 24.292 76.2801 21.716L77.6081 15.444ZM86.2431 23.46H88.1151C88.0351 24.788 89.0271 25.172 90.1151 25.172C91.6191 25.156 92.5951 24.42 92.8031 23.412C92.9631 22.676 92.5311 22.324 91.5711 22.02L89.6511 21.428C88.0991 20.948 87.1071 20.132 87.4751 18.404C87.9391 16.212 90.1791 15.284 92.3071 15.284C94.5631 15.284 96.0831 16.196 95.6351 18.58H93.7311C93.8751 17.156 93.0911 16.788 91.8751 16.788C90.6431 16.788 89.7311 17.316 89.5071 18.388C89.3631 19.092 89.6991 19.524 90.7231 19.876L92.5311 20.484C93.9551 20.964 95.1071 21.668 94.7231 23.428C94.2751 25.556 92.0351 26.66 89.7471 26.66C87.1071 26.676 85.8431 25.412 86.2431 23.46ZM101.543 22.5L100.695 26.5H98.8711L101.223 15.444H105.319C106.983 15.444 108.791 16.212 108.215 18.884C107.719 21.236 105.879 22.5 103.831 22.5H101.543ZM102.727 16.932L101.847 21.044H103.991C104.903 21.044 106.023 20.74 106.407 18.916C106.791 17.108 105.527 16.932 104.839 16.932H102.727ZM108.634 20.98C109.354 17.572 112.378 15.268 115.37 15.268C118.362 15.268 120.378 17.556 119.642 20.98C118.922 24.404 115.93 26.692 112.938 26.692C109.946 26.692 107.914 24.388 108.634 20.98ZM113.29 24.98C115.418 24.98 117.354 23.3 117.85 20.98C118.346 18.644 117.114 16.948 115.002 16.948C112.874 16.948 110.922 18.644 110.426 20.98C109.93 23.3 111.194 24.98 113.29 24.98ZM122.84 22.5L121.992 26.5H120.168L122.52 15.444H126.616C128.28 15.444 130.088 16.212 129.512 18.884C129.016 21.236 127.176 22.5 125.128 22.5H122.84ZM124.024 16.932L123.144 21.044H125.288C126.2 21.044 127.32 20.74 127.704 18.916C128.088 17.108 126.824 16.932 126.136 16.932H124.024ZM131.218 15.444H133.042L131.714 21.684C131.298 23.668 131.714 25.028 133.682 25.028C135.65 25.028 136.658 23.652 137.074 21.684L138.402 15.444H140.178L138.834 21.716C138.29 24.292 136.626 26.692 133.33 26.692C130.066 26.692 129.346 24.292 129.89 21.716L131.218 15.444ZM147.213 26.5H139.965L142.317 15.46H144.141L142.141 24.852H147.565L147.213 26.5ZM155.208 26.516L154.92 23.684H151.08L149.64 26.516H147.768L153.56 15.46H155.944L157.064 26.516H155.208ZM151.864 22.212H154.792L154.328 17.396L151.864 22.212ZM160.07 26.516H158.246L160.598 15.46H162.422L160.07 26.516ZM168.994 22.164L170.322 26.5H168.338L167.154 22.484H165.058L164.21 26.5H162.386L164.738 15.444H169.25C170.834 15.444 172.466 16.276 171.922 18.836C171.554 20.532 170.386 21.828 168.994 22.164ZM166.242 16.932L165.362 21.044H168.002C168.834 21.044 169.73 20.628 170.098 18.916C170.466 17.188 169.442 16.932 168.818 16.932H166.242ZM179.341 26.516H171.949L174.301 15.46H181.741L181.405 16.98H175.789L175.117 20.196H180.029L179.709 21.668H174.797L174.093 24.964H179.677L179.341 26.516Z" fill="white"/>
<defs>
<linearGradient id="paint0_linear_2395_3266" x1="196.196" y1="2.73913" x2="98.6012" y2="106.987" gradientUnits="userSpaceOnUse">
<stop stop-color="white" stop-opacity="0"/>
<stop offset="0.5" stop-color="white"/>
<stop offset="1" stop-color="white" stop-opacity="0"/>
</linearGradient>
</defs>
</svg>
