<svg width="117" height="44" viewBox="0 0 117 44" fill="none" xmlns="http://www.w3.org/2000/svg">
<g clip-path="url(#clip0_2395_3327)">
<path d="M19.44 28H11.08V14.44H12.54V26.66H19.44V28ZM30.5459 27.88L29.8059 27.96C28.8459 28.04 28.3859 27.34 28.3859 26.6V26.02C27.3859 27.6 26.3859 28.16 24.8459 28.22C23.0259 28.3 21.3259 27.26 21.3259 25.16C21.3259 22.5 23.6259 21.82 25.3459 21.82H27.7259C28.1259 21.82 28.3659 21.58 28.3659 21.18C28.3459 19.2 26.7459 18.9 25.7859 18.9C24.8659 18.9 23.1459 19.12 23.1459 21.04H21.8059C21.8059 18.56 23.8459 17.66 25.8059 17.66C27.7659 17.66 29.6459 18.56 29.6459 20.98V26.3C29.6459 26.94 30.1259 26.84 30.5459 26.76V27.88ZM28.3659 24.02V22.8H25.3859C24.3659 22.8 22.7259 23.2 22.7459 25.06C22.7459 26.46 23.8259 27.12 25.0659 27.1C26.7059 27.06 28.3659 25.6 28.3659 24.02ZM41.8937 28H32.8337L35.7737 14.2H38.0537L35.5537 25.94H42.3338L41.8937 28ZM53.6475 27.9L52.5475 27.96C51.3275 28.04 50.8675 27.3 51.0475 26.46L51.1275 26C49.9475 27.48 48.8875 28.16 47.2475 28.2C45.3275 28.24 43.7875 27.2 44.2475 25.12C44.7875 22.56 47.2075 21.66 49.4875 21.66H51.3275C51.8075 21.66 52.1075 21.4 52.1675 20.96C52.4275 19.48 51.3275 19.14 50.3875 19.14C49.3275 19.14 47.9475 19.44 47.6075 21.04H45.5875C46.1675 18.28 48.6275 17.3 50.8475 17.3C53.0075 17.3 54.7675 18.28 54.2275 20.84L53.1875 25.66C53.0875 26.12 53.2675 26.24 53.5475 26.24C53.6875 26.24 53.8675 26.2 54.0475 26.16L53.6475 27.9ZM51.5275 24.02L51.7075 23.14H49.1875C48.0075 23.14 46.8075 23.58 46.5475 24.9C46.3275 25.98 47.1675 26.44 48.2675 26.42C49.8275 26.4 51.2675 25.22 51.5275 24.02ZM57.7808 27.98H55.5808L57.8208 17.48H60.0208L59.6408 19.3C61.0008 17.48 62.4208 17.26 63.0808 17.26C66.4408 17.26 66.5008 19.82 66.0208 22.08L64.7608 27.98H62.5608L63.8208 22.14C64.2008 20.34 63.8608 19.2 62.2808 19.2C60.4808 19.2 59.2608 21.1 58.9208 22.64L57.7808 27.98ZM76.8089 27.98H74.6489L75.0289 26.16C74.1889 27.28 72.8289 28.2 71.2889 28.2C68.6489 28.2 67.2889 25.9 67.9289 22.86C68.5689 19.9 70.8489 17.28 73.5289 17.28C75.2289 17.28 76.1889 18.26 76.4889 19.38L77.8089 13.16H79.9689L76.8089 27.98ZM70.1689 22.76C69.7489 24.7 70.4489 26.38 72.1489 26.38C73.8489 26.38 75.3289 24.7 75.7489 22.72C76.1489 20.84 75.4689 19.12 73.7289 19.12C71.9889 19.12 70.5889 20.82 70.1689 22.76ZM84.2867 15.92H82.0267L82.4867 13.8H84.7467L84.2867 15.92ZM81.6867 27.98H79.5067L81.7267 17.48H83.9067L81.6867 27.98ZM86.637 27.98H84.437L86.677 17.48H88.877L88.497 19.3C89.857 17.48 91.277 17.26 91.937 17.26C95.297 17.26 95.357 19.82 94.877 22.08L93.617 27.98H91.417L92.677 22.14C93.057 20.34 92.717 19.2 91.137 19.2C89.337 19.2 88.117 21.1 87.777 22.64L86.637 27.98ZM95.7852 29.32H97.8852C97.6252 30.7 99.0052 31.1 100.225 31.1C101.865 31.1 103.205 30 103.605 28.12L103.985 26.32C103.105 27.46 101.765 28.22 100.245 28.22C97.5452 28.22 96.1252 25.92 96.7652 22.88C97.4052 19.92 99.7452 17.3 102.485 17.3C104.165 17.3 105.145 18.2 105.485 19.26L105.865 17.5H108.065L105.805 28.18C105.185 31.08 102.585 33 99.8252 33.02C96.8052 33.04 95.2052 31.94 95.7852 29.32ZM99.0052 22.78C98.6052 24.72 99.3252 26.4 101.085 26.4C102.665 26.4 104.185 25 104.645 23.26L104.865 22.22C105.125 20.56 104.285 19.14 102.665 19.14C100.845 19.14 99.4252 20.84 99.0052 22.78Z" fill="white"/>
</g>
<defs>
<clipPath id="clip0_2395_3327">
<rect width="117" height="44" rx="8" fill="white"/>
</clipPath>
</defs>
</svg>
