<svg width="204" height="36" viewBox="0 0 204 36" fill="none" xmlns="http://www.w3.org/2000/svg">
<rect x="0.75" y="0.75" width="202.5" height="34.5" rx="17.25" stroke="url(#paint0_linear_2395_3139)" stroke-width="1.5"/>
<path d="M18.212 22.5H16.7V13.12H18.324L22.524 18.608L23.742 20.358H23.854L23.784 18.664V13.12H25.296V22.5H23.672L19.444 17.026L18.268 15.374H18.156L18.212 16.998V22.5ZM31.3001 22.64C28.3601 22.64 26.4141 20.736 26.4141 17.81C26.4141 14.884 28.3601 12.98 31.3001 12.98C34.2681 12.98 36.2001 14.884 36.2001 17.81C36.2001 20.736 34.2681 22.64 31.3001 22.64ZM31.3001 21.184C33.5261 21.184 34.6041 20.148 34.6041 17.81C34.6041 15.472 33.5261 14.422 31.3001 14.422C29.0741 14.422 28.0101 15.472 28.0101 17.81C28.0101 20.148 29.0741 21.184 31.3001 21.184ZM41.2512 22.64C38.4512 22.64 37.0232 21.408 37.0232 19.434V19.35H38.5352V19.574C38.5352 20.694 39.1932 21.254 41.2512 21.254C43.0432 21.254 43.6732 20.862 43.6732 19.98C43.6732 19.168 43.1972 18.86 42.0072 18.636L39.7112 18.258C38.1292 17.978 37.0092 17.25 37.0092 15.71C37.0092 14.352 38.1292 12.98 41.0412 12.98C43.7852 12.98 45.0312 14.352 45.0312 16.186V16.27H43.5332V16.088C43.5332 14.94 42.8472 14.366 40.9012 14.366C39.1932 14.366 38.5212 14.786 38.5212 15.626C38.5212 16.438 38.9972 16.704 40.1032 16.942L42.3852 17.334C44.2612 17.67 45.1852 18.524 45.1852 19.896C45.1852 21.324 44.0232 22.64 41.2512 22.64ZM53.2572 22.64C50.3172 22.64 48.3712 20.736 48.3712 17.81C48.3712 14.884 50.3172 12.98 53.2572 12.98C56.2252 12.98 58.1572 14.884 58.1572 17.81C58.1572 20.736 56.2252 22.64 53.2572 22.64ZM53.2572 21.184C55.4832 21.184 56.5612 20.148 56.5612 17.81C56.5612 15.472 55.4832 14.422 53.2572 14.422C51.0312 14.422 49.9672 15.472 49.9672 17.81C49.9672 20.148 51.0312 21.184 53.2572 21.184ZM60.7862 22.5H59.2742V13.12H66.7362V14.478H60.7862V17.39H66.5262V18.734H60.7862V22.5ZM69.3722 22.5H67.8602V13.12H75.3222V14.478H69.3722V17.39H75.1122V18.734H69.3722V22.5ZM77.9581 22.5H76.4461V13.12H81.3181C83.4461 13.12 84.7621 14.128 84.7621 15.878C84.7621 17.432 83.7401 18.384 81.9761 18.482V18.58C82.7041 18.776 83.0401 19.196 83.3761 19.784L84.9441 22.5H83.2081L81.7101 19.91C81.2901 19.168 80.8561 18.86 79.6801 18.86H77.9581V22.5ZM77.9581 14.478V17.698H81.3041C82.5641 17.698 83.1941 17.264 83.1941 16.088C83.1941 14.94 82.5641 14.478 81.3041 14.478H77.9581ZM93.3563 22.5H85.8523V13.12H93.3563V14.478H87.3643V17.11H93.1463V18.454H87.3643V21.142H93.3563V22.5ZM98.468 22.64C95.668 22.64 94.24 21.408 94.24 19.434V19.35H95.752V19.574C95.752 20.694 96.41 21.254 98.468 21.254C100.26 21.254 100.89 20.862 100.89 19.98C100.89 19.168 100.414 18.86 99.224 18.636L96.928 18.258C95.346 17.978 94.226 17.25 94.226 15.71C94.226 14.352 95.346 12.98 98.258 12.98C101.002 12.98 102.248 14.352 102.248 16.186V16.27H100.75V16.088C100.75 14.94 100.064 14.366 98.118 14.366C96.41 14.366 95.738 14.786 95.738 15.626C95.738 16.438 96.214 16.704 97.32 16.942L99.602 17.334C101.478 17.67 102.402 18.524 102.402 19.896C102.402 21.324 101.24 22.64 98.468 22.64ZM110.53 22.5H109.032V14.478H105.336V13.12H114.212V14.478H110.53V22.5ZM119.702 22.64C116.762 22.64 114.816 20.736 114.816 17.81C114.816 14.884 116.762 12.98 119.702 12.98C122.67 12.98 124.602 14.884 124.602 17.81C124.602 20.736 122.67 22.64 119.702 22.64ZM119.702 21.184C121.928 21.184 123.006 20.148 123.006 17.81C123.006 15.472 121.928 14.422 119.702 14.422C117.476 14.422 116.412 15.472 116.412 17.81C116.412 20.148 117.476 21.184 119.702 21.184ZM130.06 22.64C127.26 22.64 125.664 21.156 125.664 18.608V13.12H127.162V18.51C127.162 20.4 128.002 21.184 130.06 21.184C132.118 21.184 132.958 20.4 132.958 18.51V13.12H134.47V18.608C134.47 21.156 132.874 22.64 130.06 22.64ZM140.471 22.5H138.973V14.478H135.277V13.12H144.153V14.478H140.471V22.5ZM154.934 22.5H147.43V13.12H154.934V14.478H148.942V17.11H154.724V18.454H148.942V21.142H154.934V22.5ZM157.624 22.5H156.112V13.12H157.736L161.936 18.608L163.154 20.358H163.266L163.196 18.664V13.12H164.708V22.5H163.084L158.856 17.026L157.68 15.374H157.568L157.624 16.998V22.5ZM172.839 22.64C170.039 22.64 168.443 21.156 168.443 18.608V13.12H169.941V18.51C169.941 20.4 170.781 21.184 172.839 21.184C174.897 21.184 175.737 20.4 175.737 18.51V13.12H177.249V18.608C177.249 21.156 175.653 22.64 172.839 22.64ZM180.101 22.5H178.589V13.12H180.213L184.413 18.608L185.631 20.358H185.743L185.673 18.664V13.12H187.185V22.5H185.561L181.333 17.026L180.157 15.374H180.045L180.101 16.998V22.5Z" fill="white"/>
<defs>
<linearGradient id="paint0_linear_2395_3139" x1="204" y1="8" x2="108.941" y2="118.889" gradientUnits="userSpaceOnUse">
<stop stop-color="white" stop-opacity="0"/>
<stop offset="0.5" stop-color="white"/>
<stop offset="1" stop-color="white" stop-opacity="0"/>
</linearGradient>
</defs>
</svg>
