<svg width="36" height="32" viewBox="0 0 36 32" fill="none" xmlns="http://www.w3.org/2000/svg">
    <path d="M1.48047 30.8625L3.8282 23.1431C2.3848 20.8759 1.62758 18.3083 1.63199 15.6961C1.61465 7.46144 9.00928 0.773438 18.0981 0.773438C22.5078 0.773438 26.6492 2.3201 29.7683 5.14103C32.8873 7.96195 34.597 11.7076 34.597 15.6961C34.597 23.916 27.2033 30.6048 18.1145 30.6048C15.3587 30.608 12.6471 29.9818 10.2343 28.7849L1.48047 30.8625ZM10.6204 26.1002L11.1233 26.3734C13.2332 27.5033 15.6431 28.1005 18.099 28.1023C25.6442 28.1023 31.7983 22.5359 31.7983 15.7117C31.7983 12.405 30.3735 9.28133 27.7911 6.94534C25.207 4.61098 21.7529 3.30636 18.0972 3.30636C10.5346 3.30636 4.38045 8.87272 4.38045 15.6969C4.38045 18.0329 5.10156 20.323 6.47716 22.2938L6.79573 22.7648L5.4037 27.3449L10.6186 26.101L10.6204 26.1002Z" fill="white"/>
    <path d="M2.05078 30.3465L4.31454 22.8856C2.91865 20.6973 2.18445 18.2187 2.18496 15.6962C2.18496 7.76516 9.32857 1.30444 18.0979 1.30444C22.357 1.30444 26.3478 2.80598 29.3655 5.52024C30.8485 6.85771 32.0236 8.4449 32.8235 10.191C33.6234 11.9371 34.0325 13.8079 34.0272 15.6962C34.0272 23.6281 26.8845 30.0889 18.1143 30.0889C15.4489 30.0889 12.8328 29.4817 10.5015 28.3297L2.05078 30.3465Z" fill="url(#paint0_linear_2395_3501)"/>
    <path d="M2.05078 30.3465L4.31454 22.8856C2.91865 20.6973 2.18445 18.2187 2.18496 15.6962C2.18496 7.76516 9.32857 1.30444 18.0979 1.30444C22.357 1.30444 26.3478 2.80598 29.3655 5.52024C30.8485 6.85771 32.0236 8.4449 32.8235 10.191C33.6234 11.9371 34.0325 13.8079 34.0272 15.6962C34.0272 23.6281 26.8845 30.0889 18.1143 30.0889C15.4489 30.0889 12.8328 29.4817 10.5015 28.3297L2.05078 30.3465Z" fill="url(#paint1_linear_2395_3501)"/>
    <path d="M1.48047 30.8625L3.8282 23.1431C2.3848 20.8759 1.62758 18.3083 1.63199 15.6961C1.61465 7.46144 9.00928 0.773438 18.0981 0.773438C22.5078 0.773438 26.6492 2.3201 29.7683 5.14103C32.8873 7.96195 34.597 11.7076 34.597 15.6961C34.597 23.916 27.2033 30.6048 18.1145 30.6048C15.3587 30.608 12.6471 29.9818 10.2343 28.7849L1.48047 30.8625ZM10.6204 26.1002L11.1233 26.3734C13.2332 27.5033 15.6431 28.1005 18.099 28.1023C25.6442 28.1023 31.7983 22.5359 31.7983 15.7117C31.7983 12.405 30.3735 9.28133 27.7911 6.94534C25.207 4.61098 21.7529 3.30636 18.0972 3.30636C10.5346 3.30636 4.38045 8.87272 4.38045 15.6969C4.38045 18.0329 5.10156 20.323 6.47716 22.2938L6.79573 22.7648L5.4037 27.3449L10.6186 26.101L10.6204 26.1002Z" fill="url(#paint2_linear_2395_3501)"/>
    <path fill-rule="evenodd" clip-rule="evenodd" d="M13.9894 9.44869C13.6882 8.82675 13.3523 8.81198 13.0675 8.81198C12.8156 8.79639 12.5472 8.79639 12.2624 8.79639C11.9941 8.79639 11.5413 8.88746 11.1561 9.26654C10.77 9.64562 9.71387 10.5408 9.71387 12.3763C9.71387 14.211 11.1899 15.9857 11.3907 16.2278C11.5915 16.4706 14.2414 20.3533 18.433 21.8548C21.9208 23.0979 22.6255 22.8559 23.3804 22.7796C24.1343 22.7041 25.8112 21.8852 26.1635 21.0048C26.4985 20.1408 26.4985 19.3826 26.3981 19.2308C26.2977 19.0791 26.012 18.988 25.6094 18.7911C25.1905 18.6089 23.1786 17.6998 22.7925 17.5775C22.4073 17.4561 22.139 17.3954 21.8706 17.7597C21.6022 18.1387 20.8145 18.9732 20.5625 19.2153C20.328 19.4581 20.0769 19.4885 19.6744 19.3063C19.2545 19.125 17.9309 18.7303 16.3536 17.4561C15.1304 16.4706 14.3089 15.2423 14.057 14.878C13.8224 14.499 14.0232 14.302 14.2414 14.1199C14.4258 13.9533 14.6613 13.6801 14.8621 13.4676C15.0629 13.2551 15.1295 13.0885 15.2811 12.8456C15.4152 12.6036 15.3477 12.3755 15.2473 12.1941C15.1469 12.0267 14.3582 10.1921 13.9894 9.44869Z" fill="white"/>
    <defs>
        <linearGradient id="paint0_linear_2395_3501" x1="18.0358" y1="30.3449" x2="18.0358" y2="1.2987" gradientUnits="userSpaceOnUse">
            <stop stop-color="#20B038"/>
            <stop offset="1" stop-color="#60D66A"/>
        </linearGradient>
        <linearGradient id="paint1_linear_2395_3501" x1="18.0358" y1="30.3449" x2="18.0358" y2="1.2987" gradientUnits="userSpaceOnUse">
            <stop stop-color="#20B038"/>
            <stop offset="1" stop-color="#60D66A"/>
        </linearGradient>
        <linearGradient id="paint2_linear_2395_3501" x1="18.036" y1="30.8657" x2="18.036" y2="0.777541" gradientUnits="userSpaceOnUse">
            <stop stop-color="#F9F9F9"/>
            <stop offset="1" stop-color="white"/>
        </linearGradient>
    </defs>
</svg>
