<svg width="111" height="35" viewBox="0 0 111 35" fill="none" xmlns="http://www.w3.org/2000/svg">
<g clip-path="url(#clip0_2439_1098)">
<path d="M17.0868 0C21.4555 0 25.8286 0 30.1973 0C32.3646 0 33.6306 1.26072 33.6306 3.43911C33.6306 12.1741 33.6306 20.9091 33.6306 29.6441C33.6306 31.7967 32.3431 33.0832 30.1931 33.0832C21.4298 33.0832 12.6665 33.0832 3.89898 33.0832C1.77039 33.0832 0.603095 31.994 0.440018 29.8756C0.422852 29.6484 0.427143 29.4211 0.427143 29.1938C0.422852 20.7118 0.422852 12.2298 0.422852 3.74357C0.422852 3.1518 0.435726 2.55575 0.654593 1.99828C1.14812 0.728988 2.24674 0.00428816 3.70157 0C8.16044 0 12.6236 0 17.0868 0ZM7.82571 16.175C7.82571 19.2024 7.81712 22.2256 7.83 25.253C7.83858 26.8568 8.5896 27.5901 10.186 27.5943C13.0099 27.5986 15.8337 27.5815 18.6575 27.6029C19.9149 27.6115 21.1637 27.53 22.3954 27.2942C25.4509 26.711 28.1889 24.8885 28.3348 21.1878C28.4292 18.8293 27.5624 16.6895 25.3522 15.5789C24.8544 15.3302 24.7557 15.1887 25.2063 14.747C27.5409 12.4871 27.1976 8.34906 24.554 6.46655C22.7859 5.20583 20.7389 4.88422 18.6575 4.83705C15.9023 4.76844 13.1472 4.8199 10.392 4.8199C8.52093 4.8199 7.83 5.506 7.82571 7.36707C7.82142 10.3002 7.82571 13.2376 7.82571 16.1707V16.175Z" fill="white"/>
<path d="M45.1577 20.5104C42.9948 20.5104 40.8318 20.5104 38.6689 20.5104C37.8578 20.5104 37.7934 20.609 38.0295 21.3852C38.9479 24.3826 42.0978 26.248 45.3594 25.7463C46.7112 25.5404 47.9643 25.1073 49.0672 24.2883C49.3634 24.0696 49.6809 23.8938 50.0629 23.8852C51.08 23.868 51.6765 24.8372 51.1872 25.7291C50.8225 26.3981 50.1787 26.7754 49.5565 27.1442C46.4323 29.0095 41.4069 28.7351 38.5616 26.501C35.755 24.3054 34.7593 21.2994 35.0125 17.856C35.2443 14.6828 36.6991 12.1742 39.4929 10.5447C43.9088 7.97181 51.3503 9.22824 53.2858 15.4504C53.6334 16.5653 53.7922 17.7102 53.7493 18.8809C53.7149 19.7385 53.3201 20.2059 52.4661 20.3989C51.8825 20.5318 51.2902 20.5018 50.698 20.5018C48.8527 20.5018 47.0073 20.5018 45.1663 20.5018L45.1577 20.5104ZM44.4195 18.1348C46.3979 18.1348 48.3806 18.1219 50.359 18.1433C50.9426 18.1519 51.1186 17.9975 50.9898 17.3886C50.2431 13.8294 47.548 11.7497 43.8531 11.9212C40.6602 12.067 38.2655 14.2111 37.7677 17.35C37.6733 17.9461 37.8535 18.1562 38.4801 18.1476C40.4585 18.1133 42.4411 18.1348 44.4195 18.1348Z" fill="white"/>
<path d="M60.9846 18.1304C62.0532 17.1098 62.9973 16.205 63.95 15.3088C65.7052 13.6535 67.4648 12.0069 69.2243 10.3602C69.4217 10.1758 69.6363 9.99573 69.868 9.85851C70.4602 9.51117 71.1812 9.63552 71.6061 10.1329C72.018 10.6132 72.0524 11.3036 71.6018 11.8225C71.1555 12.3328 70.6405 12.7873 70.1384 13.2504C68.6406 14.6441 67.1472 16.0463 65.6237 17.4143C65.2117 17.783 65.246 18.0103 65.6022 18.3962C67.8081 20.789 69.9882 23.199 72.1725 25.6089C72.5502 26.0292 72.842 26.4837 72.6274 27.0884C72.2627 28.1046 71.0439 28.3276 70.2542 27.4743C68.7737 25.8705 67.3274 24.2324 65.8726 22.6072C65.0529 21.6938 64.2333 20.7805 63.4307 19.8499C63.1647 19.5412 62.9844 19.524 62.6583 19.7985C60.9889 21.2179 60.9803 21.2093 60.9803 23.392C60.9803 24.4383 60.9889 25.4846 60.9803 26.5309C60.9717 27.4228 60.4353 28.0017 59.637 28.0146C58.8774 28.0275 58.311 27.4872 58.2166 26.6424C58.1908 26.4194 58.1951 26.1878 58.1951 25.9606C58.1951 19.2281 58.1951 12.5 58.1951 5.7676C58.1951 5.51889 58.1908 5.26588 58.2208 5.01717C58.3195 4.27961 58.8946 3.8122 59.6456 3.83792C60.4567 3.86794 60.9717 4.36108 60.976 5.16726C60.9846 8.85079 60.9803 12.5343 60.9803 16.2179C60.9803 16.801 60.9803 17.3842 60.9803 18.1261L60.9846 18.1304Z" fill="white"/>
<path d="M78.7471 17.9974C79.1119 17.9116 79.2535 17.6586 79.4423 17.4828C81.9743 15.0986 84.502 12.7058 87.034 10.3173C87.0984 10.253 87.167 10.1929 87.2357 10.1372C87.961 9.54543 88.7892 9.52399 89.3214 10.0857C89.8621 10.6561 89.7977 11.4622 89.0982 12.1355C88.1326 13.066 87.1327 13.9622 86.15 14.8756C85.2316 15.7247 84.3304 16.5952 83.3905 17.4185C82.9785 17.7787 83.0086 18.0146 83.3648 18.4048C85.5534 20.7804 87.7206 23.1775 89.8922 25.566C90.287 25.9991 90.6131 26.4622 90.3943 27.0926C90.0381 28.1089 88.8107 28.3362 88.0254 27.4828C86.5276 25.8619 85.0685 24.2067 83.6008 22.5643C82.7983 21.6681 81.9915 20.7718 81.2018 19.8585C80.9401 19.554 80.7598 19.524 80.4294 19.8027C78.7557 21.2221 78.7471 21.2092 78.7471 23.3962C78.7471 24.4425 78.7557 25.4888 78.7471 26.5351C78.7385 27.4271 78.2064 28.006 77.4039 28.0231C76.6443 28.0403 76.0778 27.5 75.9834 26.6552C75.9619 26.4537 75.9619 26.2478 75.9619 26.042C75.9619 19.2667 75.9619 12.4914 75.9619 5.71181C75.9619 5.48454 75.9619 5.25727 75.9877 5.02999C76.0864 4.29243 76.6571 3.82073 77.4082 3.84646C78.2192 3.87219 78.7428 4.36962 78.7428 5.1715C78.7514 8.53771 78.7471 11.9039 78.7471 15.2658C78.7471 16.1664 78.7471 17.0669 78.7471 18.0017V17.9974Z" fill="white"/>
<path d="M96.2782 33.8466C96.2911 33.2548 96.4714 32.9075 96.643 32.5601C97.5185 30.7848 98.3897 29.0095 99.2823 27.2471C99.4754 26.8655 99.4883 26.5567 99.2909 26.1665C96.8833 21.4709 94.4973 16.7668 92.0983 12.0713C91.8065 11.5052 91.579 10.9392 91.9738 10.3389C92.2871 9.86288 92.7506 9.65705 93.3171 9.67849C93.9866 9.70422 94.3041 10.1631 94.5702 10.6905C95.8491 13.2548 97.1322 15.8149 98.4111 18.3792C99.205 19.9658 99.9947 21.5524 100.793 23.1348C100.879 23.3063 100.909 23.5979 101.141 23.5936C101.368 23.5936 101.398 23.3063 101.484 23.1305C103.522 19.0138 105.556 14.8972 107.586 10.7763C107.835 10.2745 108.106 9.78998 108.719 9.69564C109.299 9.60559 109.814 9.76426 110.174 10.2488C110.548 10.7462 110.466 11.2608 110.196 11.7883C108.591 14.9529 106.99 18.1176 105.398 21.2866C103.351 25.3474 101.316 29.4126 99.2694 33.4735C99.0978 33.8166 98.9218 34.1768 98.6686 34.4598C98.248 34.9315 97.7116 35.1502 97.0722 34.8843C96.5229 34.657 96.2739 34.2368 96.2782 33.8466Z" fill="white"/>
<path d="M16.5806 17.3714C17.7608 17.4314 19.2199 17.2642 20.6704 17.4657C21.2154 17.5429 21.7433 17.6759 22.2454 17.8946C23.6101 18.4949 24.2967 19.6012 24.1937 21.0206C24.0993 22.3542 23.2796 23.3234 21.8892 23.7479C20.8549 24.0652 19.7863 24.1596 18.7221 24.181C16.7437 24.2153 14.761 24.1767 12.7826 24.2024C12.1518 24.211 11.8728 24.0223 11.8857 23.3491C11.9157 21.621 11.9114 19.8928 11.8857 18.1647C11.8771 17.5772 12.1003 17.35 12.6882 17.3628C13.8941 17.3885 15.1 17.3714 16.5806 17.3714Z" fill="white"/>
<path d="M15.6277 13.9536C14.6278 13.9536 13.6236 13.9408 12.6237 13.9579C12.0958 13.9665 11.8898 13.7435 11.8941 13.2246C11.907 11.7924 11.907 10.3559 11.8941 8.92362C11.8941 8.43905 12.0872 8.21178 12.5808 8.22036C14.8338 8.25895 17.0868 8.11315 19.3356 8.34471C20.1081 8.4219 20.8505 8.63202 21.5286 9.04369C23.0477 9.96564 23.1293 12.0111 21.6659 13.0317C20.6745 13.7221 19.5244 13.9022 18.3571 13.9451C17.4473 13.9794 16.5375 13.9536 15.6234 13.9493L15.6277 13.9536Z" fill="white"/>
</g>
<defs>
<clipPath id="clip0_2439_1098">
<rect width="110" height="35" fill="white" transform="translate(0.422852)"/>
</clipPath>
</defs>
</svg>
