<svg width="81" height="26" viewBox="0 0 81 26" fill="none" xmlns="http://www.w3.org/2000/svg">
<g clip-path="url(#clip0_2439_1090)">
<path d="M52.219 18.8636C52.219 23.2726 54.7202 25.9998 58.7712 25.9998C61.6254 25.9998 64.0346 24.5907 66.1368 21.6968L66.2443 21.5453L66.3057 21.7271C67.1804 24.4393 69.4207 25.9998 72.4284 25.9998C75.436 25.9998 78.0138 24.3938 80.2083 21.0907C80.4384 20.7422 80.331 20.515 80.1776 20.409C80.1162 20.3635 80.0394 20.3483 79.9627 20.3483C79.8859 20.3483 79.6865 20.4241 79.6251 20.5302C77.8451 23.1817 75.8195 24.4695 73.4104 24.4695C70.2953 24.4695 68.4232 22.1816 68.4232 18.3333C68.4232 17.6514 68.4846 16.9393 68.6074 16.2727V16.1969H68.6994C74.5306 16.0757 80.4231 13.7878 80.4231 9.63634C80.4231 7.6515 78.996 6.5 76.5255 6.5C70.9552 6.5 65.876 12.3939 65.876 18.8636C65.876 19.3938 65.9067 19.9241 65.9834 20.4241V20.4544L65.9374 20.5302C64.2954 23.1362 62.2085 24.4695 59.738 24.4695C56.623 24.4695 54.7509 22.1816 54.7509 18.3333C54.7509 17.6514 54.8123 16.9393 54.935 16.2727V16.1969H55.0271C60.8581 16.0757 66.7507 13.7878 66.7507 9.63634C66.7507 7.6515 65.3236 6.5 62.853 6.5C57.2828 6.5 52.2036 12.3939 52.2036 18.8636M75.7429 7.53029C77.1085 7.53029 77.8605 8.31816 77.8605 9.77266C77.8605 12.909 74.3618 15.0454 68.9297 15.2272H68.7915L68.8222 15.106C69.9424 10.7879 72.904 7.53029 75.7275 7.53029H75.7429ZM62.0858 7.53029C63.4515 7.53029 64.2034 8.31816 64.2034 9.77266C64.2034 12.909 60.7047 15.0454 55.2725 15.2272H55.1345L55.1652 15.106C56.2854 10.7879 59.247 7.53029 62.0704 7.53029H62.0858Z" fill="white"/>
<path d="M55.2035 7.3024C55.2035 6.92391 54.9606 6.5 54.2468 6.5C53.0168 6.5 51.4527 7.37809 49.843 8.96775C48.8103 9.98214 47.7625 11.2084 47.0792 12.5105C47.064 12.5407 47.0184 12.6315 46.9273 12.5861C46.8514 12.5559 46.8818 12.465 46.8818 12.4347C47.2158 11.269 47.4892 10.0276 47.5195 8.80122C47.5195 8.45301 47.5044 8.15022 47.4588 7.8777C47.3981 7.51435 47.2614 7.21156 47.0792 6.98446C47.0033 6.87849 46.9121 6.80279 46.8058 6.72709C46.5325 6.54542 46.1984 6.5 45.8795 6.5C45.5606 6.5 45.2265 6.5 44.8316 6.5C44.4368 6.5 44.1483 6.5 43.8142 6.5C43.4802 6.5 43.1461 6.5 42.812 6.5C42.4779 6.5 42.2805 6.62111 42.159 6.84821C42.0375 7.06017 42.0375 7.3024 42.159 7.51435C42.2805 7.72631 42.5386 7.86257 42.8272 7.86257H42.8576C44.6342 7.86257 44.9987 8.92234 45.1202 10.0578C45.2568 11.3749 45.0899 12.571 44.8469 13.9941C44.285 17.4005 43.4194 21.0643 42.4323 24.3496C42.2501 24.9703 42.402 25.3488 42.569 25.5759C42.7664 25.8484 43.1005 25.9998 43.4649 25.9998C43.9813 25.9998 44.4065 25.6516 44.4673 25.1672C44.7861 22.5782 46.0314 16.7495 47.3373 14.3272C49.0381 11.1781 51.6805 9.63393 53.5786 8.9072C54.5354 8.54385 55.2187 7.8777 55.2187 7.31754L55.2035 7.3024Z" fill="white"/>
<path d="M35.6236 6.5C32.8836 6.5 30.3273 7.86363 28.4291 10.3181C26.6535 12.6211 25.6279 15.6817 25.6279 18.712C25.6279 23.2726 27.9393 25.9998 31.7968 25.9998C34.5368 25.9998 37.0931 24.6513 38.9912 22.1969C40.7669 19.8938 41.7925 16.8484 41.7925 13.8181C41.7925 9.2424 39.481 6.5 35.6236 6.5ZM32.0417 25.0301C29.5313 25.0301 28.2608 22.9999 28.2608 18.9999C28.2608 12.6363 31.4447 7.46969 35.3634 7.46969C37.8738 7.46969 39.1443 9.49994 39.1443 13.4999C39.1443 19.8635 35.9604 25.0301 32.0417 25.0301Z" fill="white"/>
<path d="M58.573 4.84463C58.573 4.84463 58.6645 4.84463 58.6951 4.82918C61.1843 4.1649 63.1086 3.43882 64.7273 2.5737C65.216 2.29563 65.4298 2.17205 65.5672 1.84763C65.7505 1.35328 65.5062 0.797135 65.0328 0.611755C64.7884 0.519064 64.6204 0.519064 64.3608 0.611755C64.1623 0.673548 63.9485 0.828033 63.811 0.982515C62.742 2.23384 60.9858 3.28434 58.4355 4.22669C58.3591 4.25759 58.3133 4.30393 58.2675 4.38118C58.2217 4.45842 58.2217 4.55111 58.2522 4.6438C58.2827 4.75194 58.3896 4.87553 58.5882 4.87553L58.573 4.84463Z" fill="white"/>
<path d="M25.4522 5.08658C25.9923 2.06834 26.4244 0.995866 29.0013 0.949902C29.2636 0.949902 29.4643 0.73541 29.4643 0.474953C29.4643 0.214495 29.2482 1.0395e-06 28.9858 1.02817e-06L20.792 6.74112e-07C20.5296 6.62777e-07 20.3136 0.214495 20.3136 0.474952C20.3136 0.735409 20.5297 0.949902 20.7765 0.949902C22.6128 0.980544 23.2609 1.28696 23.2609 2.92631C23.2609 3.40127 23.1991 4.04475 22.9368 5.57684C22.5203 8.12013 19.4648 10.5255 16.7952 11.4908C15.8231 11.8431 14.8046 12.0882 13.8171 12.3334C12.0425 12.7624 10.2062 13.2067 8.66307 14.2945C8.52418 14.4018 8.36989 14.509 8.21557 14.6316L8.01497 14.8001L8.41618 12.6398L8.67851 11.1844L9.85123 5.08658C10.3913 2.06834 10.8234 0.995866 13.4004 0.949902C13.6628 0.949902 13.8633 0.735409 13.8633 0.474952C13.8633 0.214495 13.6473 3.65397e-07 13.385 3.54061e-07L5.19107 0C4.92873 -1.13286e-08 4.71271 0.214495 4.71271 0.474951C4.71271 0.735409 4.92874 0.949902 5.17564 0.949902C7.01194 0.980544 7.66005 1.28696 7.66005 2.92631C7.66005 3.40127 7.59832 4.04475 7.33599 5.57684L4.43496 20.9132C3.89486 23.9314 3.46279 25.0039 0.885789 25.0499C0.623461 25.0499 0.422852 25.2643 0.422852 25.5248C0.422852 25.7852 0.638882 25.9997 0.901213 25.9997H9.09513C9.35747 25.9997 9.57352 25.7852 9.57352 25.5248C9.57352 25.2643 9.35748 25.0652 9.11058 25.0499C7.27428 25.0192 6.62617 24.7128 6.62617 23.0734C6.62617 22.5985 6.68788 21.955 6.95021 20.4229L7.33599 18.3393C7.89151 15.3669 10.7771 14.3711 13.5084 13.8042C16.0391 13.268 19.2334 12.3947 21.579 10.2344C21.687 10.1425 21.795 10.0199 21.9184 9.89736L22.1498 9.66754L20.0204 20.9132C19.4803 23.9314 19.0483 25.0039 16.4712 25.0499C16.2089 25.0499 16.0083 25.2643 16.0083 25.5248C16.0083 25.7852 16.2244 25.9997 16.4867 25.9997H24.6805C24.943 25.9997 25.159 25.7852 25.159 25.5248C25.159 25.2643 24.9429 25.0652 24.696 25.0499C22.8597 25.0192 22.2116 24.7128 22.2116 23.0734C22.2116 22.5985 22.2733 21.955 22.5357 20.4229L25.4367 5.08658H25.4522Z" fill="white"/>
</g>
<defs>
<clipPath id="clip0_2439_1090">
<rect width="80" height="26" fill="white" transform="translate(0.422852)"/>
</clipPath>
</defs>
</svg>
