<svg width="217" height="33" viewBox="0 0 217 33" fill="none" xmlns="http://www.w3.org/2000/svg">
<path d="M54.5991 10.4615C54.0864 10.6568 53.6267 10.9231 53.2377 11.2426C52.8487 11.5621 52.5481 11.9704 52.3359 12.4142C52.1238 12.8757 52 13.355 52 13.8521V18.0414C52 18.5917 52.1061 19.0888 52.3006 19.5503C52.5128 20.0118 52.7956 20.3846 53.1846 20.7219C53.5559 21.0414 54.0156 21.2899 54.5461 21.4675C55.0765 21.645 55.6423 21.7337 56.2788 21.7337H70.7066V18.716H56.2965C55.9429 18.716 55.7307 18.6272 55.6423 18.432C55.5539 18.2367 55.5009 18.0059 55.5009 17.7219V17.4556H70.7243V14.4734H55.4832V14.1006C55.4832 13.8521 55.5362 13.6213 55.6246 13.426C55.713 13.2308 55.9429 13.1243 56.2965 13.1243H70.7243V10.1598H56.2965C55.6777 10.1598 55.1119 10.2663 54.5991 10.4615ZM75.7634 18.4142C75.675 18.2367 75.6396 18.0059 75.6396 17.7219V10.1598H72.1918V18.2189C72.1918 18.7692 72.2979 19.2485 72.5101 19.6746C72.7222 20.1183 73.0228 20.4734 73.3941 20.7752C73.7654 21.0769 74.2075 21.3077 74.7379 21.4675C75.2506 21.6272 75.8341 21.716 76.453 21.716H86.7434V18.6805H76.4353C76.0817 18.6805 75.8695 18.5917 75.7811 18.4142H75.7634ZM91.0399 10.4615C90.5271 10.6568 90.0674 10.9231 89.6784 11.2426C89.2894 11.5621 88.9889 11.9704 88.7767 12.4142C88.5645 12.8757 88.4584 13.355 88.4584 13.8521V18.0414C88.4584 18.5917 88.5645 19.0888 88.759 19.5503C88.9712 20.0118 89.2541 20.3846 89.6431 20.7219C90.0144 21.0414 90.4741 21.2899 91.0045 21.4675C91.5349 21.645 92.1007 21.7337 92.7372 21.7337H107.165V18.716H92.7372C92.3836 18.716 92.1715 18.6272 92.083 18.432C91.9946 18.2367 91.9416 18.0059 91.9416 17.7219V17.4556H107.165V14.4734H91.9239V14.1006C91.9239 13.8521 91.977 13.6213 92.0654 13.426C92.1538 13.2308 92.3836 13.1243 92.7372 13.1243H107.165V10.1598H92.7372C92.1184 10.1598 91.5526 10.2663 91.0399 10.4615ZM117.049 18.8402L111.727 10.1775H107.855L113.265 19.142C113.477 19.5148 113.707 19.8521 113.955 20.1893C114.202 20.5089 114.467 20.8106 114.768 21.0414C115.068 21.2899 115.404 21.4852 115.776 21.6272C116.147 21.7692 116.571 21.8402 117.049 21.8402C117.544 21.8402 117.968 21.7692 118.339 21.6272C118.711 21.4852 119.029 21.2899 119.312 21.0414C119.613 20.7929 119.86 20.5089 120.108 20.1716C120.337 19.8521 120.585 19.497 120.815 19.1243L126.296 10.1598H122.459L117.031 18.8225L117.049 18.8402ZM129.744 10.4615C129.231 10.6568 128.771 10.9231 128.382 11.2426C127.993 11.5621 127.693 11.9704 127.481 12.4142C127.268 12.8757 127.162 13.355 127.162 13.8521V18.0414C127.162 18.5917 127.268 19.0888 127.463 19.5503C127.675 20.0118 127.958 20.3846 128.329 20.7219C128.701 21.0414 129.16 21.2899 129.691 21.4675C130.203 21.645 130.787 21.7337 131.423 21.7337H145.851V18.716H131.423C131.07 18.716 130.858 18.6272 130.769 18.432C130.681 18.2367 130.628 18.0059 130.628 17.7219V17.4556H145.851V14.4734H130.61V14.1006C130.61 13.8521 130.663 13.6213 130.752 13.426C130.84 13.2308 131.07 13.1243 131.423 13.1243H145.851V10.1598H131.423C130.805 10.1598 130.239 10.2663 129.726 10.4615H129.744ZM162.701 18.6627L153.613 11.1006C152.765 10.3728 151.845 10 150.873 10C150.431 10 150.024 10.071 149.6 10.213C149.193 10.355 148.822 10.5503 148.521 10.7988C148.203 11.0473 147.955 11.3314 147.778 11.6686C147.584 12.0059 147.496 12.3609 147.496 12.7515V21.7515H150.873V13.1243L159.024 20.0118C159.536 20.4024 159.961 20.7041 160.314 20.9527C160.668 21.2012 160.986 21.3964 161.251 21.5207C161.517 21.6627 161.764 21.7515 161.994 21.8047C162.224 21.858 162.454 21.8757 162.701 21.8757C163.161 21.8757 163.585 21.787 164.01 21.6272C164.416 21.4675 164.788 21.2367 165.088 20.9704C165.407 20.6864 165.654 20.3491 165.831 19.9586C166.008 19.568 166.096 19.142 166.096 18.6805V10.1775H162.701V18.6805V18.6627ZM195.853 11.1006C195.571 10.8166 195.235 10.5858 194.828 10.4083C194.421 10.2308 193.979 10.142 193.502 10.142C193.024 10.142 192.582 10.2485 192.193 10.4438C191.787 10.6391 191.433 10.8876 191.115 11.1893C190.779 11.4911 190.514 11.8284 190.266 12.1834C190.019 12.5562 189.824 12.8935 189.665 13.2308L186.836 19.0888L184.06 13.2308C183.901 12.8935 183.706 12.5385 183.459 12.1834C183.211 11.8284 182.929 11.4911 182.61 11.1893C182.274 10.8876 181.921 10.6391 181.532 10.4438C181.143 10.2485 180.701 10.142 180.241 10.142C179.781 10.142 179.357 10.2308 178.968 10.4083C178.579 10.5858 178.243 10.8343 177.942 11.1183C177.66 11.4024 177.43 11.7396 177.271 12.1124C177.111 12.4852 177.023 12.858 177.023 13.2308V21.6982H180.241V13.2308L183.406 19.2663C183.565 19.6035 183.777 19.9231 183.989 20.2604C184.219 20.5976 184.467 20.8817 184.75 21.1302C185.05 21.3787 185.351 21.5917 185.704 21.7515C186.058 21.9112 186.429 22 186.854 22C187.331 22 187.755 21.929 188.091 21.8047C188.445 21.6805 188.728 21.503 188.993 21.2722C189.258 21.0414 189.488 20.7574 189.7 20.4201C189.913 20.0828 190.125 19.7101 190.337 19.284L193.52 13.2308V21.6982H196.755V13.2308C196.755 12.8402 196.684 12.4497 196.525 12.0769C196.366 11.7041 196.154 11.3669 195.871 11.0828L195.853 11.1006ZM217 10.1953H212.615L209.114 13.6568C209.114 13.6568 208.937 13.8521 208.778 13.9763C208.637 14.1006 208.495 14.2426 208.354 14.4024C208.212 14.5621 208.071 14.7219 207.947 14.8817C207.824 15.0414 207.735 15.1834 207.682 15.3254V16.6568C207.735 16.7988 207.824 16.9408 207.947 17.0828C208.071 17.2249 208.212 17.3846 208.354 17.5266C208.495 17.6686 208.637 17.8106 208.778 17.9349C208.92 18.0592 209.026 18.1657 209.114 18.2367L212.615 21.7337H217L211.307 16L217 10.1953ZM206.993 14.4024C206.851 14.2426 206.71 14.1006 206.568 13.9763C206.427 13.8521 206.321 13.7456 206.25 13.6568L202.749 10.1953H198.364L204.057 16L198.364 21.7337H202.749L206.25 18.2367C206.25 18.2367 206.427 18.0592 206.568 17.9349C206.71 17.8106 206.851 17.6686 206.993 17.5266C207.134 17.3846 207.275 17.2249 207.399 17.0828C207.523 16.9231 207.611 16.7811 207.664 16.6568V15.3254C207.611 15.1834 207.523 15.0414 207.399 14.8817C207.275 14.7219 207.134 14.5621 206.993 14.4024Z" fill="white"/>
<path d="M40.8176 18.4075L34.0714 3.61561L34.0023 3.50289C32.7169 1.41329 30.3877 0.104046 27.7738 0H26.2123H15.0319H13.4791C10.8651 0.104046 8.52727 1.41329 7.2505 3.50289L7.18149 3.61561L0.435293 18.4075C-0.332496 20.0983 -0.0736917 21.841 1.12544 23.0809C1.45326 23.4104 1.83284 23.7052 2.27281 23.948C2.87669 24.2948 7.88889 26.9566 17.1627 31.8728L17.9305 32.2803C18.8536 32.7746 19.6904 33 20.5617 33H20.6739C21.5452 33 22.382 32.7746 23.3051 32.2803L24.0815 31.8728C33.3553 26.9566 38.3675 24.2948 38.98 23.948C39.4114 23.7052 39.7996 23.4104 40.1274 23.0723C41.3265 21.8324 41.5853 20.0896 40.8176 18.3988V18.4075ZM39.1181 22.2659C38.8765 22.5087 38.6005 22.7254 38.2726 22.9075C37.6774 23.2457 32.6824 25.8988 23.4172 30.815L22.6408 31.2225C21.9334 31.5954 21.3123 31.7775 20.6825 31.7775H20.5704C19.9492 31.7775 19.3281 31.604 18.6207 31.2225L17.8443 30.815C8.57904 25.9075 3.57547 23.2457 2.98021 22.9075C2.66102 22.7254 2.37633 22.5087 2.13478 22.2659C1.2721 21.3815 1.10819 20.1503 1.68619 18.8844L8.39787 4.15318L8.42375 4.10983C9.47623 2.39306 11.3828 1.32659 13.5308 1.24855H15.0319H26.2037H27.7134C29.8528 1.33526 31.7594 2.40173 32.8118 4.1185L32.8377 4.16185L39.5494 18.8931C40.1274 20.1503 39.9635 21.3815 39.0922 22.2746L39.1181 22.2659Z" fill="#009AD5"/>
<path d="M38.885 20.2368H37.0993L31.9577 4.59523L31.9404 4.56054C31.9404 4.56054 31.9404 4.56054 31.9318 4.5432C31.8628 4.43049 31.7851 4.32644 31.7075 4.21372C31.6902 4.18771 31.673 4.1617 31.6471 4.13569C31.4832 3.91893 31.2934 3.7195 31.095 3.53742C31.0691 3.51141 31.0432 3.49407 31.0173 3.46806C30.9138 3.38135 30.8103 3.29465 30.7068 3.20794C30.6291 3.14725 30.5429 3.08656 30.4566 3.03453C30.4566 3.03453 30.4566 3.03453 30.448 3.03453C30.3617 2.98251 30.2754 2.93049 30.1892 2.87846C30.1892 2.87846 30.1805 2.87846 30.1805 2.86979C30.146 2.85245 30.1201 2.83511 30.0943 2.82644C30.0339 2.79176 29.9735 2.76575 29.9217 2.73106C29.9217 2.73106 29.9131 2.73106 29.9045 2.73106C29.8096 2.68771 29.7233 2.64436 29.6284 2.60968C29.6284 2.60968 29.6284 2.60968 29.6112 2.60968C29.5853 2.60101 29.5594 2.59234 29.5421 2.58367C29.4731 2.55765 29.3955 2.52297 29.3265 2.49696H29.3178C29.2229 2.46228 29.1194 2.4276 29.0159 2.39291C28.9124 2.3669 28.8089 2.34089 28.7053 2.31488C28.5932 2.28887 28.4897 2.27153 28.3775 2.25419C28.2654 2.23684 28.1618 2.2195 28.0497 2.21083C27.9375 2.20216 27.8254 2.19349 27.7132 2.18482H26.2381H25.5134C25.2632 2.69638 24.6507 3.83222 24.0727 4.25708C23.1583 4.93338 21.1482 5.06343 21.1482 5.06343L21.1223 9.93627L25.6169 8.28887L28.5759 20.2542H21.1051V30.8235C21.2604 30.7975 21.4243 30.7455 21.5968 30.6848C21.5968 30.6848 21.6054 30.6848 21.6141 30.6848C21.6917 30.6588 21.7694 30.6241 21.847 30.5894C21.8642 30.5894 21.8815 30.5721 21.8988 30.5634C21.985 30.5201 22.0713 30.4854 22.1576 30.4334C22.4164 30.2946 31.44 25.4998 35.2962 23.4536H35.3049C36.6075 22.76 37.5306 22.2657 37.7635 22.1357C38.0223 21.9883 38.2207 21.8322 38.3847 21.6675C38.816 21.2253 38.9368 20.7224 38.9109 20.2629L38.885 20.2368ZM12.7112 20.2368L15.6702 8.27153L20.1389 9.91892V5.04609C20.1389 5.04609 18.1374 4.92471 17.223 4.23973C16.645 3.81488 16.0325 2.67904 15.7823 2.16748H13.5825C13.4703 2.17615 13.3582 2.18482 13.246 2.19349C13.1339 2.20216 13.0217 2.2195 12.9182 2.23684C12.8061 2.25419 12.7025 2.27153 12.5904 2.29754C12.4869 2.32355 12.3833 2.34956 12.2798 2.37557C12.1763 2.40158 12.0728 2.43627 11.9779 2.47095H11.9693C11.8916 2.49696 11.8226 2.53164 11.7536 2.55765C11.7277 2.55765 11.7018 2.57499 11.6759 2.58367C11.6759 2.58367 11.6759 2.58367 11.6587 2.58367C11.5638 2.62702 11.4775 2.6617 11.3826 2.70505C11.3826 2.70505 11.374 2.70505 11.3654 2.70505C11.305 2.73106 11.2446 2.76575 11.1842 2.80043C11.1583 2.81777 11.1238 2.83511 11.0893 2.84378C11.0893 2.84378 11.0893 2.84378 11.0807 2.85245C10.9944 2.90447 10.9082 2.9565 10.8219 3.00852C10.8219 3.00852 10.8219 3.00852 10.8133 3.00852C10.727 3.06054 10.6493 3.12124 10.5631 3.18193C10.4509 3.26864 10.3474 3.34667 10.2439 3.44205C10.218 3.46806 10.1921 3.4854 10.1749 3.51141C9.96783 3.69349 9.78666 3.89291 9.62275 4.10968C9.6055 4.13569 9.58825 4.1617 9.56237 4.18771C9.48472 4.29176 9.40708 4.40447 9.33807 4.51719C9.33807 4.51719 9.33807 4.52586 9.32944 4.53453L9.31219 4.56921L4.17059 20.2108H2.3762C2.35032 20.6704 2.47972 21.1733 2.91107 21.6155C3.07498 21.7802 3.27339 21.9363 3.5322 22.0837C3.76512 22.2137 4.69682 22.7166 5.99085 23.4016H6.0081C9.8643 25.4478 18.888 30.2426 19.1468 30.3813C19.2417 30.4334 19.3193 30.4681 19.4056 30.5114C19.4228 30.5114 19.4401 30.5287 19.4574 30.5374C19.535 30.5721 19.6126 30.6068 19.6817 30.6328C19.6817 30.6328 19.6903 30.6328 19.6989 30.6328C19.8714 30.7022 20.044 30.7455 20.1993 30.7715V20.2022H12.7198L12.7112 20.2368Z" fill="white"/>
</svg>
