<svg width="140" height="23" viewBox="0 0 140 23" fill="none" xmlns="http://www.w3.org/2000/svg">
<path d="M76.8086 4.96124C76.8086 10.2095 88.2969 8.93777 88.2969 16.8573C88.2969 20.705 84.9291 22.8693 81.0907 22.8693C77.2523 22.8693 74.8267 21.0235 73.3154 19.5296L73.8513 18.9881C75.2362 20.2923 77.753 21.6918 80.618 21.6918C83.765 21.6918 85.8102 20.0052 85.8102 17.5896C85.8102 11.3545 74.323 12.4041 74.323 5.59815C74.323 2.13073 76.9652 0 81.3726 0C84.332 0 86.1253 1.27174 87.5422 2.63985L86.9763 3.14792C85.4961 1.84371 83.7329 1.11251 81.5613 1.11251C78.6983 1.11251 76.8086 2.54452 76.8086 4.96124Z" fill="white"/>
<path d="M109.22 0.285961L100.753 8.52396L110.416 22.5518H106.954L98.5816 10.6557L95.7165 13.4538V22.5508H92.7271V0.284912H95.7165V12.0207L107.803 0.284912H109.22V0.285961Z" fill="white"/>
<path d="M113.365 0.285889H116.355V22.5518H113.365V0.285889Z" fill="white"/>
<path d="M125.324 0.285889L136.591 16.5398C137.125 17.336 137.598 18.2882 138.07 19.2436V0.286934H139.423V22.5528H137.189L126.393 7.12645C125.386 5.72691 124.566 4.29594 123.939 2.86393V22.5528H122.552V0.286934H125.323L125.324 0.285889Z" fill="white"/>
<path d="M56.4618 22.9578C56.1021 22.8814 55.7393 22.8196 55.3848 22.7253C52.4793 21.9595 50.6415 20.0425 49.6443 17.2486C48.9882 15.4091 48.899 13.4994 49.067 11.573C49.2452 9.52184 49.7283 7.54824 50.7565 5.75378C52.9893 1.85895 56.3726 -0.0381777 60.8154 0.000581962C61.714 0.00791487 62.6117 0.165049 63.5104 0.254091C63.5104 0.302279 63.5104 0.34942 63.5104 0.397608C63.1984 0.438462 62.8864 0.478269 62.5744 0.521219C60.8661 0.755872 59.2108 1.17385 57.6652 1.96999C54.9671 3.3601 53.3905 5.62388 52.67 8.53924C52.4907 9.2631 52.3788 10.0048 52.3 10.759C52.3363 10.693 52.3777 10.6291 52.4099 10.561C53.6683 7.86461 56.3913 6.49859 59.3144 7.0318C62.7112 7.65195 64.9398 10.3358 65.3938 13.5811C65.4332 13.8608 65.4768 14.1405 65.5182 14.4202V15.4133C65.4996 15.4856 65.4695 15.5568 65.4633 15.6302C65.1896 19.0232 62.9797 21.7311 59.7249 22.6404C59.2564 22.7714 58.7754 22.8541 58.2996 22.9589H56.4628L56.4618 22.9578ZM62.366 14.8246C62.3495 14.548 62.3381 14.151 62.2987 13.7571C62.166 12.4225 61.8125 11.1602 61.0486 10.0425C59.7591 8.15583 57.4362 7.47177 55.4729 8.41667C54.1679 9.04521 53.3583 10.1305 52.8577 11.464C52.1943 13.2312 52.1207 15.0551 52.4358 16.9009C52.6887 18.38 53.2101 19.7513 54.2176 20.8847C55.278 22.0789 56.5717 22.7096 58.1918 22.3565C59.3662 22.0999 60.2162 21.3519 60.8765 20.3746C61.9825 18.7372 62.3308 16.8851 62.366 14.8246Z" fill="white"/>
<path d="M31.922 22.9577C31.3177 22.8278 30.6937 22.7587 30.1143 22.5575C27.1943 21.5435 25.4435 19.4997 24.9169 16.4147C24.9086 16.3654 24.9159 16.313 24.9708 16.2418C25.0113 16.3089 25.061 16.3717 25.0911 16.444C26.0302 18.6931 27.7778 19.925 30.0883 20.365C32.2299 20.7736 34.1703 20.2477 35.7376 18.6952C37.4542 16.995 37.9714 14.903 37.2614 12.5911C36.5606 10.3084 34.9529 8.95918 32.6207 8.59673C30.3112 8.23846 28.3158 8.88376 26.8014 10.7631C26.6646 10.9338 26.5474 11.1213 26.4314 11.3078C26.3235 11.4796 26.2292 11.6598 26.0644 11.8169C26.7786 7.87391 27.6068 3.96128 28.4029 0.0224609H39.263C39.1095 0.939075 38.9592 1.84731 38.8007 2.75345C38.7913 2.80582 38.7094 2.86658 38.6493 2.88334C38.5685 2.90639 38.4762 2.89068 38.3881 2.89068C35.1727 2.89068 31.9583 2.89068 28.7429 2.89068C28.6133 2.89068 28.4827 2.89068 28.3252 2.89068C27.8369 5.28644 27.3529 7.66545 26.8563 10.1021C26.9237 10.0466 26.9569 10.0298 26.9745 10.0026C28.0484 8.42179 29.5701 7.56069 31.4151 7.30718C33.7505 6.98558 35.9263 7.45175 37.8149 8.9309C39.5459 10.2864 40.4011 12.1239 40.5887 14.307C40.9795 18.8502 37.4345 22.5209 33.2778 22.9001C33.2177 22.9053 33.1607 22.9378 33.1027 22.9577H31.922Z" fill="white"/>
<path d="M10.859 22.9579V19.3239H0C4.50697 12.8678 8.96523 6.48187 13.4235 0.0959473C13.4432 0.102233 13.4639 0.10747 13.4836 0.113756V16.4724H16.5187C16.3093 17.4446 16.1102 18.3664 15.906 19.3113H13.4836V22.9589H10.859V22.9579ZM10.8321 16.4693V4.71463C8.0572 8.66079 5.32586 12.5462 2.56756 16.4693H10.8321Z" fill="white"/>
<path d="M43.4053 11.4484C43.4105 10.6522 44.0365 10.0404 44.8378 10.0509C45.61 10.0603 46.2226 10.6899 46.2206 11.4714C46.2185 12.2592 45.5769 12.9013 44.7984 12.895C44.0168 12.8888 43.4011 12.2487 43.4063 11.4484H43.4053Z" fill="white"/>
<path d="M22.1121 11.4681C22.111 12.2601 21.4746 12.9022 20.6972 12.896C19.9301 12.8897 19.303 12.2601 19.2926 11.4859C19.2812 10.6992 19.9146 10.0518 20.6972 10.0508C21.4933 10.0497 22.1142 10.6699 22.1121 11.4681Z" fill="white"/>
</svg>
