<svg width="303" height="19" viewBox="0 0 303 19" fill="none" xmlns="http://www.w3.org/2000/svg">
<path d="M8.37097 4.608V1.2H22.579V9.744C22.531 16.248 17.731 18.312 11.371 18.312C5.56297 18.312 1.09897 16.584 0.282969 11.28H4.09897C4.96297 14.568 8.49097 14.904 11.395 14.904C14.683 14.904 18.787 14.424 18.787 9.792V4.608H8.37097ZM29.631 9.792C29.631 14.424 33.783 14.976 37.071 14.976C40.359 14.976 44.463 14.424 44.463 9.792V1.2H48.255V9.744C48.255 16.248 43.407 18.312 37.047 18.312C30.735 18.312 25.839 16.248 25.839 9.744V1.2H29.631V9.792ZM57.9825 10.224C54.0945 9.648 51.4545 8.088 51.4545 5.52V4.872C51.4545 2.112 53.3265 1.2 56.6385 1.2H63.9105L67.2945 4.608H55.0305C55.0305 5.952 56.7825 6.624 59.9505 7.104L67.1985 8.208C70.5585 8.712 72.4305 10.104 72.4305 12.456V13.488C72.4305 16.608 68.9265 18.312 62.3745 18.312C55.9425 18.312 50.9745 16.2 50.8065 11.28H54.5025C55.0065 14.04 58.2465 14.904 62.3505 14.904C67.1505 14.88 68.7345 14.256 68.7345 13.224V12.888C68.7345 12.024 67.9185 11.736 66.2385 11.472L57.9825 10.224ZM70.3752 4.608V1.2H92.5032V4.608H83.3352V18H79.5432V4.608H70.3752ZM115.13 14.976C118.97 14.976 122.762 14.304 123.506 11.28H127.25C126.674 16.344 122.09 18.312 115.13 18.312C107.666 18.312 102.938 16.056 102.938 10.128V8.904C102.938 2.976 107.666 0.719999 115.13 0.719999C122.162 0.719999 126.77 2.736 127.274 7.92H123.554C122.906 4.752 119.042 4.056 115.13 4.056C110.834 4.056 106.61 4.896 106.61 8.904V10.128C106.61 14.136 110.834 14.976 115.13 14.976ZM129.68 8.904C129.68 2.976 134.408 0.719999 141.872 0.719999C149.336 0.719999 154.064 2.976 154.064 8.904V10.128C154.064 16.056 149.336 18.312 141.872 18.312C134.408 18.312 129.68 16.056 129.68 10.128V8.904ZM150.392 8.904C150.392 4.896 146.168 4.056 141.872 4.056C137.576 4.056 133.352 4.896 133.352 8.904V10.128C133.352 14.136 137.576 14.976 141.872 14.976C146.168 14.976 150.392 14.136 150.392 10.128V8.904ZM175.68 18L173.256 13.776H160.608L158.184 18H154.08L163.728 1.2H170.136L179.784 18H175.68ZM162.504 10.464H171.36L166.944 2.76L162.504 10.464ZM191.982 14.976C195.822 14.976 199.614 14.304 200.358 11.28H204.102C203.526 16.344 198.942 18.312 191.982 18.312C184.518 18.312 179.79 16.056 179.79 10.128V8.904C179.79 2.976 184.518 0.719999 191.982 0.719999C199.014 0.719999 203.622 2.736 204.126 7.92H200.406C199.758 4.752 195.894 4.056 191.982 4.056C187.686 4.056 183.462 4.896 183.462 8.904V10.128C183.462 14.136 187.686 14.976 191.982 14.976ZM226.26 18V11.208H210.924V18H207.132V1.2H210.924V7.728H226.26V1.2H230.052V18H226.26ZM233.303 4.608V1.2H250.151V4.608H243.623V14.592H250.151V18H233.303V14.592H239.831V4.608H233.303ZM275.358 1.2V18H271.47L257.19 5.736V18H253.398V1.2H257.286L271.566 13.488V1.2H275.358ZM290.56 14.976C294.472 14.976 298.312 14.28 298.984 11.136H286.24V7.8H302.752V10.128C302.752 16.056 298.024 18.312 290.56 18.312C283.096 18.312 278.368 16.056 278.368 10.128V8.904C278.368 2.976 283.096 0.719999 290.56 0.719999C296.704 0.719999 301 2.256 302.32 6.096H298.048C296.536 4.464 293.56 4.056 290.56 4.056C286.264 4.056 282.04 4.896 282.04 8.904V10.128C282.04 14.136 286.264 14.976 290.56 14.976Z" fill="white"/>
</svg>
