<svg width="103" height="33" viewBox="0 0 103 33" fill="none" xmlns="http://www.w3.org/2000/svg">
<path d="M10.6422 23.4217C8.74877 23.4217 7.85763 21.9729 8.32999 20.3017C9.30449 16.8205 15.5703 11.696 19.8593 11.696C22.9773 11.696 22.7272 14.4805 20.9171 16.8761L19.9148 17.9895C16.2689 21.5283 12.9266 23.4217 10.6422 23.4217ZM25.9325 0C20.4745 0 14.4866 3.34228 10.6998 6.48806L11.0054 6.90486C16.8544 2.81037 24.9858 0.136948 27.2127 4.14807C28.3817 6.26379 26.3771 10.525 23.5647 13.8951C24.2336 12.4184 23.787 9.55049 19.8612 9.55049C13.3176 9.55049 0.422852 18.2396 0.422852 27.1232C0.422852 30.6878 2.90177 33 6.96649 33C17.8547 33 32.6151 15.1494 32.6151 6.2102C32.5595 3.06442 30.7494 0 25.9325 0Z" fill="white"/>
<path d="M39.9386 23.4219C39.2976 23.4219 38.7696 23.1996 38.4342 22.8086C38.1008 22.3918 37.9877 21.7785 38.1564 21.1652C38.5176 19.8295 39.9664 18.7697 41.4431 18.7697H44.9521L43.6997 23.4477H39.9406V23.4219H39.9386ZM49.9933 9.44146C48.991 8.21689 47.3754 7.65918 46.2064 7.65918H39.8295L38.7438 11.6981H44.7595L45.345 11.7537C45.345 11.7537 45.9027 11.8092 46.2084 12.228C46.4585 12.5614 46.4863 13.0914 46.3195 13.7324L46.0417 14.7903H42.2508C38.9919 14.7903 34.4529 17.1303 33.4506 20.8893C32.9485 22.7828 33.395 24.3983 34.3695 25.5951C35.344 26.7919 37.1819 27.433 39.1587 27.433H42.6676H47.1233L49.2113 19.635L50.7435 13.8992C51.3012 11.6703 50.6601 10.2492 49.9933 9.44146Z" fill="white"/>
<path d="M93.7149 7.65897C91.9882 7.65897 90.4004 8.1611 89.0925 9.1356C87.7846 10.1101 87.0601 11.2791 86.6136 12.8947C85.6669 16.3759 88.4236 18.0748 90.6227 19.2716C92.2105 20.1349 93.574 20.8594 93.2683 21.9728C93.0461 22.7528 92.7106 23.4494 90.7616 23.4494H84.8293L83.7437 27.4883H90.3151C92.0696 27.4883 93.7129 27.1271 95.0209 26.1229C96.3288 25.1206 97.081 23.6995 97.5276 21.9728C97.9741 20.3294 97.6665 18.7694 96.6086 17.6004C95.7453 16.6259 94.4651 15.9293 93.3497 15.3438C91.9287 14.5638 90.5929 13.8394 90.8152 12.976C90.9542 12.4461 91.4841 11.6959 92.6253 11.6959H98.4167L99.5024 7.65698H93.7149V7.65897Z" fill="white"/>
<path d="M59.2383 7.65897C57.5116 7.65897 55.9239 8.1611 54.6159 9.1356C53.308 10.1101 52.5836 11.2791 52.137 12.8947C51.1903 16.3759 53.9471 18.0748 56.1461 19.2716C57.7339 20.1349 59.0974 20.8594 58.7918 21.9728C58.5695 22.7528 58.2341 23.4494 56.2851 23.4494H50.3527L49.2671 27.4883H55.8385C57.593 27.4883 59.2364 27.1271 60.5443 26.1229C61.8522 25.1206 62.6044 23.6995 63.051 21.9728C63.4956 20.3294 63.1899 18.7694 62.1321 17.6004C61.2687 16.6259 59.9886 15.9293 58.8732 15.3438C57.4521 14.5638 56.1164 13.8394 56.3387 12.976C56.4776 12.4461 57.0075 11.6959 58.1487 11.6959H63.9124L64.998 7.65698H59.2383V7.65897Z" fill="white"/>
<path d="M68.2056 7.65918L63.0532 27.4588H67.3978L72.5501 7.65918H68.2056Z" fill="white"/>
<path d="M84.1626 7.6589C76.4757 7.68669 72.4666 12.8112 71.1844 17.5448C69.68 23.1973 72.6889 27.4307 78.1746 27.4307H81.8504L82.936 23.3918H79.2603C77.2001 23.3918 74.3878 21.7762 75.5012 17.515C76.4201 14.145 79.7069 11.6383 83.327 11.6383H85.667L86.7526 7.59937L84.1626 7.6589Z" fill="white"/>
<path d="M99.2565 26.5398H99.6455V25.6764H99.9511C100.146 25.6764 100.285 25.7042 100.368 25.732C100.507 25.8153 100.562 25.982 100.562 26.2341V26.4008V26.4842V26.512V26.5398H100.924V26.512C100.924 26.4842 100.924 26.4564 100.896 26.4008C100.896 26.3453 100.896 26.2897 100.896 26.2341V26.0674C100.896 25.9562 100.868 25.8451 100.785 25.734C100.701 25.6228 100.59 25.5395 100.423 25.5117C100.562 25.4839 100.674 25.4561 100.729 25.4005C100.868 25.3172 100.951 25.1782 100.951 24.9837C100.951 24.7059 100.84 24.5392 100.618 24.426C100.479 24.3705 100.285 24.3427 100.032 24.3427H99.2803L99.2565 26.5398ZM100.342 25.3708C100.259 25.3985 100.148 25.4263 99.9809 25.4263H99.6475V24.6463H99.9809C100.203 24.6463 100.342 24.6741 100.455 24.7297C100.566 24.7853 100.594 24.8964 100.594 25.0353C100.564 25.204 100.509 25.3152 100.342 25.3708ZM101.456 24.0608C101.067 23.6718 100.592 23.4753 100.062 23.4753C99.5046 23.4753 99.06 23.6698 98.669 24.0608C98.28 24.4498 98.0835 24.9242 98.0835 25.4541C98.0835 26.0118 98.278 26.4842 98.669 26.8474C99.058 27.2364 99.5323 27.4329 100.062 27.4329C100.62 27.4329 101.065 27.2384 101.456 26.8474C101.845 26.4584 102.041 25.984 102.041 25.4541C102.041 24.9242 101.847 24.4518 101.456 24.0608ZM101.261 24.2573C101.594 24.5908 101.763 24.9817 101.763 25.4541C101.763 25.9285 101.596 26.3453 101.261 26.6787C100.928 27.0121 100.537 27.1808 100.064 27.1808C99.5899 27.1808 99.2009 27.0141 98.8675 26.6787C98.534 26.3453 98.3653 25.9265 98.3653 25.4541C98.3653 24.9798 98.532 24.5908 98.8675 24.2573C99.2029 23.9239 99.5919 23.7552 100.064 23.7552C100.537 23.7552 100.928 23.9219 101.261 24.2573Z" fill="white"/>
</svg>
